<?xml version="1.0" encoding="UTF-8"?><svg id="Layer_1" xmlns="http://www.w3.org/2000/svg" viewBox="0 0 214.81 301.5"><defs><style>.cls-1,.cls-2{fill:#fff;}.cls-3,.cls-4{fill:#ffd02a;}.cls-5{fill:#18477e;}.cls-5,.cls-2,.cls-4{fill-rule:evenodd;}</style></defs><path class="cls-2" d="M116.09,18.67c.13,0,.25-.03,.33-.07,.1-.05,.17-.16,.21-.3l-.4,.28s-.08,.06-.13,.09h0Zm2.3-5.76l.31-.19c1.36-.84,7.76-3.27,9.31-3.37l7.84-.47-3.65,6.95c-1.5,2.86-3.84,6.44-5.18,9.91,18.09,.64,36.14,2.15,54.1,4.44l3.87,.49v22.18c3.72,.53,7.43,1.09,11.13,1.74,5.05,.88,10.08,1.87,15.11,2.83l3.6,.69v50.05l-20.64,16.78v83.58c.12,2.11,.11,4.22-.07,6.32-1.27,14.81-10.65,26.65-20.89,36.69-7.92,7.77-16.79,14.85-25.65,21.52-12.41,9.35-25.29,18.17-38.2,26.8l-2.46,1.65-2.46-1.65c-12.91-8.63-25.79-17.46-38.2-26.8-8.86-6.67-17.73-13.75-25.65-21.52-10.24-10.04-19.62-21.88-20.89-36.69-.13-1.51-.17-3.02-.14-4.54,.01-.6,.04-1.19,.07-1.78V124.94L-1.02,108.16V58.11l3.6-.69c5.03-.96,10.06-1.96,15.11-2.83,3.7-.64,7.41-1.2,11.13-1.74V30.67l3.87-.49c17.96-2.29,36.01-3.8,54.1-4.44-1.34-3.47-3.67-7.06-5.18-9.91l-3.65-6.95,7.84,.47c1.55,.09,7.95,2.53,9.31,3.37l.31,.19,2.02-1.52c2.4-1.8,4.16-4.7,6.01-7.04l3.46-4.35,3.46,4.35c1.86,2.33,3.61,5.23,6.01,7.04l2.02,1.52h0Zm-21.23,5.39c.04,.14,.11,.26,.21,.3,.08,.04,.2,.06,.33,.07-.05-.04-.09-.07-.13-.09l-.4-.28h0Z"/><path class="cls-2" d="M20.64,208.55V124.46L0,107.67V58.95l2.77-.53c5.03-.96,10.05-1.95,15.09-2.83,3.98-.69,7.98-1.29,11.97-1.86v-6.77l2.98-.38c24.59-3.13,49.3-4.79,74.08-4.79s49.5,1.66,74.08,4.79l2.98,.38v6.77c4,.57,7.99,1.17,11.97,1.86,5.04,.88,10.07,1.87,15.09,2.83l2.77,.53v48.72l-20.64,16.78v84.1c.12,2.07,.11,4.14-.07,6.2-1.24,14.54-10.54,26.2-20.59,36.05-7.89,7.74-16.73,14.79-25.55,21.43-12.4,9.33-25.26,18.15-38.16,26.77l-1.89,1.27-1.89-1.27c-12.9-8.62-25.76-17.44-38.16-26.77-8.82-6.64-17.66-13.7-25.55-21.43-10.05-9.85-19.35-21.51-20.59-36.05-.13-1.47-.17-2.95-.14-4.43,.01-.59,.04-1.18,.07-1.77h0Z"/><path class="cls-5" d="M38.89,39.39v21.28l-4.37,.58c-10.57,1.41-14.21,1.86-24.7,3.79v37.44l12.56,9.62c8.79-3.65,18.5-6.19,28.54-8.34-6.5,3.29-19.06,9.36-19.06,12.45l108.32,118.31c15.36-17.03,36.34-8.14,44.25-21.85,7-12.13,1.16-69.31-2.52-96.46,0-3.09-12.55-9.15-19.06-12.45,10.04,2.15,19.76,4.69,28.54,8.34l12.56-9.62v-37.44c-10.49-1.93-14.12-2.38-24.7-3.79l-4.37-.58v-21.28c-45.97-5.51-90.04-5.51-136,0h0Z"/><path class="cls-4" d="M38.89,39.39v21.28l-4.37,.58c-5.94,.79-11.87,1.67-17.78,2.63-4.61,.75-2.32,.31-6.92,1.16v37.44l12.56,9.62c8.91-3.51,17.94-5.86,28.54-8.34-7.4,3.34-16.71,8.75-19.06,12.45v91.51c-1.5,19.18,19.36,42.1,75.02,76.77,55.66-34.67,76.53-57.59,75.02-76.77V116.21c-2.35-3.7-11.66-9.11-19.06-12.45,10.6,2.49,19.64,4.83,28.54,8.34l12.56-9.62v-37.44c-4.6-.85-2.3-.41-6.92-1.16-5.91-.96-11.84-1.84-17.78-2.63l-4.37-.58v-21.28c-45.97-5.51-90.04-5.51-136,0h0ZM106.9,296.18c-63.78-42.64-83.4-62.52-82.92-85.78,.01-.58,.04-1.16,.07-1.74V122.84L3.41,106.05V61.77c13.97-2.66,15.94-3.12,29.84-5.07v-22.12c49.86-6.35,97.45-6.35,147.31,0v22.12c13.9,1.95,15.86,2.41,29.84,5.07v44.28l-20.64,16.78v85.82c1.5,24.03-17.49,43.82-82.85,87.52h0Z"/><path class="cls-2" d="M85.16,96.77c11.07-1.01,38.02,8.69,46.24,13.26l.93,.52,.69,.8c11.05,12.86,23.51,31.45,28.53,47.73,3.15,5.87,6.89,11.58,10.17,17.4,11,19.45,22.69,47.62-2.95,63.85l-4.15,2.63c-4.06,16.38-10.62,22.47-11.55,29.05-.34,3.97-.69,7.3-2.14,11.07-3.37,8.81-26.95,16.13-34.93,14.83-3.87,.6-15.62-7.68-13.35-20.14,0-.86,.03-1.71,.16-2.57,.25-1.76,.64-3.11,1.14-4.34-34.68,5.88-62.06-26.9-61.46-65.02l-1.17-10c-.62-5.26-1.61-10.53-2.53-15.75-1.07-6.03-2.09-12.08-2.75-18.17-.58-5.44-.87-10.95-.59-16.42l.02-.45,.09-.44c4.88-23.64,28.82-38.54,51.86-44.36l-2.27-3.48h0Z"/><path class="cls-5" d="M119.94,214.14c2.42-.72,2.71,.73,4.95,4.53l11.18,18.39c4.81,7.91,4.41,5.88,2.31,14.7-.45,1.9-3.47,15.36-4.16,16-2.61-.04-4.83,.1-7.56,.86-.12,.03,.25-1.56,.13-1.53-2.88,.81-7.36,3.39-9.53,5.3,.65-1.93,1.81-3.98,2.62-6.14,.8-2.15,1.46-4.36,2.06-6.68,6.46-25.1-2.16-44.08-2.01-45.43h0Zm36.12-52.78c10.07,18.99,38.27,55.79,9.55,73.97,.08-5.24-.96-10.95-4.25-18.01,.52,4.78,.37,9.6-.4,14.43-.27,1.78-.62,3.57-1.01,5.36-1.81,8.2-5.12,17.94-7.91,25.99-.72,2.09-2.58,6.55-2.75,8.54-.31,3.55-.54,6.24-1.77,9.47-.61,1.58-2.22,3.64-3.01,3.74-.34-.83-.36-3.99-.84-5.64-2.76,.63-4.64,7.31-5.36,9.28-1.27-1.26-2.35-4.62-2.27-6.17-1.89,.33-2.75,1.64-3.12,3.14-.31,1.33-1.75,5.77-2.47,6.91-2.35-.61-2.87-5.53-3.02-7.65l-3.09,.69c.67,2.21-.54,8.66-1.54,8.98-2.23-1.93-3.86-6.68-4.23-8.58-1.64,.03-2.31,1.3-2.56,2.8-.33,1.92,.07,5.09,.08,7.2-1.07-.17-6.49-6.03-7.34-7.82-1.11-2.33-1.14-5.09-.47-6.93,.53-1.47,.17-3.34,.41-5,.5-3.46,1.85-5.18,3.07-7.72,3.92-8.14,6.55-16.28,6.15-25.89-.19-4.45-2.07-13.56-4.41-16.61-.93,.12-2.29,.69-3.35,.96-1.13,.28-2.39,.39-3.57,.67,.16,2.27,3.85,7.05,4.29,9.73-6.73-.85-23.3-9.03-24.7-9.29-1.17,2.3-1.78,2.31-1.04,3.51,.66,1.07,1.35,2.13,2.02,3.23l5.92,9.62c2.04,3.17,1.12,1.76,5.53,4.84,.99,.69,1.49,1.08,1.83,1.28,1.13,.66,3.78-.59,5.12-.94-.24,1.63-1.06,2.57-1.59,3.43,1.38,1.06,4.87-1.06,6.29-1.77,.65,1.82-2.09,4.15-2.21,4.41,1.12,.68,1.73,.72,3.74-.62,.69-.46,1.43-.88,2.14-1.28-.02,2.25-1.6,5.11-2.67,6.51-1.34,1.75-2.82,3.12-5.06,4.14-2.08,.95-12.77,1.86-15.84,2.07-30.56,2.09-50.35-38.79-40.47-64.66,.21,.8,.25,3.32,.36,4.41,1.52,15.34,1.57,27.61,16.19,35.1,5.44,2.79,9.94,1.99,16.3,1.59-.43-1.09-10.68-11.11-12.83-13.18-1.47-1.43-2.9-2.73-4.31-4.35-.81-.92-.51-2.51-.44-4.05,.06-1.36,.17-2.78,.33-4.12,.3-2.51,.79-5.1,1.43-7.38,.83-2.96,1.77-5.16,2.96-7.29l.14,.02c1.38-2.41,2.5-3.58,2.55-3.69,3,2.1,2.73,1.12,7.53,3.93-5.17-4.36-13.83-15.59-17.86-20.21l-1.98,1.45c-3.33-6.2-6.38-24.06-6.27-24.41,1.55-4.16,4.27-8.55,7-12.39-.02-.05-2.58-5-4.29-8.23,0-2.62,2.16-7.65,3.9-9.55-.16,2-.27,3.57-.04,4.79,2.47,1.98,3.57,2.95,8.69,5.43,.19,.14,4-.28,3.87-.11-2.55,3.43-7.59,16.31-9.07,21.26,.31,2.34,.27,9.31,13.27,26.64-1.92-6.36-2.88-11.43-3.36-17.85,.77-.19,2.22,1.51,2.19,.71-.17-4.91,2.06-8.83,3.01-11.37,.31-.84,4.17-1.28,4.67-1.48-1.66-1.49-5.26-3.97-6.82-5.31,.12-.48,1.89-1.56,5.7-1.97,1.13-.06,4.42,4.31,6.42,3.73,.91,.85,2.63,6.74,1.03,7.63-1.09,1.28-5.13,.19-5.76,2.32-1.84,5.17-1.4,11.99,.42,13.83,.26,1.61,1.39,3.74,2.79,5.25-.14-2.47-.09-4.86,.69-5.01,.91-.18,2.09-.49,4.06-.63l.04-1.79c-.02-1.16-.91-2.12-2.32-3.02-1.48-1.63-1.31-4.76-1.29-5.88,.49-1.4,.55-2.51,6.78-2.56,6.21,.45,6.2,1.56,6.6,2.99-.06,1.12,0,3.92-1.58,5.45-1.4,1.17-2.4,1.25-2.54,3.12l-.04,1.8c2.5,.27,4.29,.76,5.26,1,.77,.19,.5,3.66,.62,4.71,2.33-1.69,6.52-14.63,2.93-19.7-.78-1.11-2.85,.09-4.33-1.75-1.11-1.48,1.46-7.36,1.63-7.37,2.22-.15,5.19-4.13,6.61-4.16,4.37-.11,7.05,.19,9.11-.89,.78-1.36,.31-3.54-.07-7.8-.02-.22,2.92,.51,3.11,.38l6.72-4.08c.54-.98,1.03-2.06,1.44-3.21,0-1.34-.09-2.67-.29-3.46-4.3,.4-7.77,1.59-12.27,2.68-.14-.05-12.52-4.21-15.81-4.03l-5.96,3.56-5.69-3.93c-3.56-.44-15.95,3.23-16.1,3.26-4.33-1.61-5.6-1.99-9.48-4.81,2.37,.23,5.1,.53,8.94,.58,4.82-1.56,10.29-2.79,15.08-3.28l7.14,1.57c2.18-.64,4.16-.91,6.12-1.37,1.61-1.2,16.21,3.79,15.75,2.27-3.9-12.97-16.45-21.15-18.24-23.12,9.2,1.26,23.37,8.15,28.3,10.89,11.15,12.98,23.11,31.33,27.53,46.15h0Zm-108.84,33.8c-1.65-14.07-6.71-32.38-5.84-49.35,3.03-14.7,14.78-26.13,26.14-30.5-6.28,8.44-14.72,13.95-18.66,32.41,.51,7.23,.34,21.79,.6,35.73l-2.24,11.71h0Zm89.68-22.21c.52,.55,1.74,2.05,1.7,1.57l-2-27.33,7.19,22.8-.11,10.24c-.19,.61-3.99-1.45-4.35-.93l-13.44,19.4,11.01-25.74h0Zm-50.31,13.4c.36,1.36,.1,2.83,.93,3.71,.16,.07,1.01,.41,1.32,.51,2,.64,4.03,1.21,5.99,1.43,1.98-.09,4.04-.54,6.07-1.05,.33-.08,1.19-.36,1.35-.42,.9-.83,1.05-2.36,1.43-3.77,1.02,1.35,.49,4.83-.43,5.55-2.67,1.16-5.75,1.95-8.49,2.05-.65,1.61-.51,3.15-.1,4.68-2.18,.15-3.05,.04-4.18-.68-1.48-1.79-2.92-6.15-4.07-6.59-.88-.79-.85-4.13,.18-5.44h0Zm27.28-32.82c-.89,3.28-5.08,4.33-7.84,3.81,2.22,3.29,10.24,1.19,7.84-3.81h0Z"/><path class="cls-4" d="M66.36,187.34c4.34,5.27,9.99,12.13,13.77,15.31-4.81-2.81-4.54-1.83-7.53-3.93-.14,.3-7.55,7.74-7.69,25.62-.28-7.83-5.03-24.03,1.45-37.01h0Zm30.36-54.2l5.96-3.56c3.29-.18,15.67,3.99,15.81,4.03,4.5-1.09,7.97-2.28,12.27-2.68,.2,.78,.28,2.12,.29,3.45-.41,1.16-.9,2.24-1.44,3.21l-6.72,4.08c-.19,.13-3.13-.6-3.11-.38,.38,4.26,.86,6.45,.07,7.8-2.06,1.08-4.74,.78-9.11,.89-1.42,.04-4.39,4.01-6.61,4.16-.17,.01-2.75,5.89-1.63,7.37,1.48,1.83,3.54,.64,4.33,1.75,3.6,5.08-.6,18.02-2.93,19.71-.12-1.05,.15-4.52-.62-4.71-.98-.24-2.79-.74-5.32-1l.1-1.79c.14-1.87,1.14-1.95,2.54-3.12,1.58-1.54,1.52-4.34,1.58-5.45-.4-1.43-.39-2.54-6.6-2.99h-.24l-.88-13.18,3.71-5.78-1.45-11.81h0Zm40.18,39.8c.52,.55,1.74,2.05,1.7,1.57l-2-27.33,7.19,22.8-.11,10.24c-.19,.61-3.99-1.45-4.35-.93l-13.44,19.4,11.01-25.74h0Zm-42.29,19.02l.23,.03c1.98-.09,4.04-.54,6.07-1.04,.33-.08,1.19-.36,1.35-.42,.9-.83,1.05-2.36,1.43-3.77,1.02,1.35,.49,4.83-.43,5.55-2.63,1.15-5.66,1.92-8.37,2.05-.11-.77-.21-1.57-.28-2.4h0Zm19.26-38.45c-.89,3.28-5.08,4.33-7.84,3.81,2.22,3.29,10.24,1.19,7.84-3.81h0Z"/><path class="cls-4" d="M92.69,30.45c-.32-.2-.35-.44-.49-1.04-.44-5.59-4.15-10.84-6.68-15.64,.4,.02,6.32,2.14,7.23,2.71-1.15,8.54,9.89,8.43,9.81,1.91-.01-1.15-.79-2.29-2.49-3.46,2.96-2.22,4.59-5.02,6.82-7.82,2.22,2.8,3.86,5.59,6.82,7.82-1.7,1.17-2.48,2.31-2.49,3.46-.08,6.52,10.97,6.63,9.81-1.91,.91-.57,6.84-2.69,7.23-2.71-2.53,4.8-6.23,10.05-6.68,15.64-.13,.6-.17,.84-.49,1.04-1.52,.91-26.9,.91-28.42,0h0Z"/><path class="cls-3" d="M79.64,86.77c-1.62,.98-3.27,1.95-4.89,2.93-4.71,.46-9.41,.94-14.1,1.48-1.61-.68-3.23-1.35-4.84-2.03v-20.23c1.61-1.03,3.23-2.07,4.84-3.11,4.69-.36,9.39-.67,14.1-.96,1.62,.8,3.27,1.58,4.89,2.37v19.55h0Zm108.5-11.27c2.33-1.58,4.66-3.19,7.01-4.84-3.94-.56-7.89-1.12-11.81-1.67-4.38-.54-8.72-1.07-13.1-1.56-1.62,.89-3.26,1.76-4.89,2.63v11.41c1.62,1.27,3.27,2.55,4.89,3.83,3.46,.51,6.88,1.09,10.33,1.67v6.89c-2.54-.47-5.08-.95-7.63-1.41v-2.46c-2.54-.38-5.07-.77-7.59-1.16v4.81c1.62,1.31,3.27,2.62,4.89,3.94,4.38,.79,8.72,1.66,13.1,2.54,1.59-.74,3.19-1.46,4.8-2.19v-12.1c-1.61-1.4-3.21-2.79-4.8-4.16-3.5-.54-6.94-1.07-10.4-1.6v-6.76c2.54,.35,5.08,.69,7.63,1.05v2.5c2.54,.37,5.05,.76,7.57,1.18v-2.55h0Zm-162.53,0c-2.33-1.59-4.66-3.2-6.97-4.84,2.31-.33,4.64-.66,6.97-.99,6.76-.91,13.54-1.75,20.33-2.49,1.61,.88,3.23,1.76,4.85,2.62v10.9c-1.75,1.41-3.48,2.81-5.17,4.23,1.2,2.08,2.38,4.15,3.58,6.2,.99-.15,1.98-.31,2.97-.45v5.46c-2.74,.45-5.44,.91-8.12,1.37-1.09-1.86-2.19-3.74-3.25-5.63-1.06-1.87-2.15-3.74-3.21-5.64-.76,.13-1.5,.26-2.24,.38v6.85c.72-.13,1.45-.27,2.17-.4v5.65c-3.99,.81-7.96,1.61-11.91,2.52v-5.82c.69-.15,1.41-.3,2.14-.46v-19.79c-.72,.11-1.45,.23-2.14,.34h0Zm9.74,5.42c2.63-.41,5.24-.81,7.86-1.16v-6.72c-2.61,.31-5.23,.67-7.86,1.04v6.85h0Zm103.22,8.74v-4.59c.71,.05,1.43,.1,2.15,.17v-15.69c-.72-.05-1.45-.09-2.15-.13v-4.59c3.97,.23,7.96,.5,11.95,.77v4.67c-.72-.05-1.45-.11-2.17-.16v15.87c1.91,.18,3.83,.4,5.77,.64v-2.05c2.51,.3,5.05,.6,7.59,.91v6.84c-7.71-1.02-15.43-1.9-23.14-2.64h0Zm-15.57-.97v-4.52c.71,.03,1.41,.05,2.12,.08-.21-.67-.44-1.35-.63-2.01-2.44-.1-4.85-.19-7.25-.26-.23,.65-.44,1.31-.67,1.96,.74,0,1.46,.02,2.19,.05v4.51c-3.97-.08-7.94-.14-11.91-.19v-4.5c.65,0,1.34,.01,2.01,.02,.55-1.65,1.11-3.3,1.66-4.94,.55-1.65,1.12-3.29,1.68-4.94,.56-1.65,1.09-3.3,1.64-4.96,.55-1.65,1.13-3.3,1.71-4.96,3.53,.05,7.1,.15,10.63,.25,.55,1.69,1.11,3.38,1.66,5.07,.55,1.69,1.12,3.38,1.68,5.07,.56,1.71,1.13,3.42,1.68,5.12,.55,1.71,1.11,3.42,1.69,5.13,.65,.05,1.34,.1,2.05,.15v4.57c-3.99-.29-7.96-.53-11.91-.7h0Zm-4.25-11.18c1.41,.05,2.81,.1,4.2,.15-.71-2.12-1.39-4.23-2.12-6.35-.71,2.07-1.38,4.13-2.08,6.2h0Zm-18.52,1.91v4.48c.71,0,1.41-.02,2.14-.03v4.51c-4.01,.05-7.98,.16-11.95,.33v-4.53c.71-.03,1.43-.05,2.15-.09v-4.53c-1.08-1.77-2.17-3.56-3.23-5.34-1.06-1.78-2.12-3.57-3.18-5.37-.99,.03-1.94,.08-2.89,.12v-4.55c3.97-.15,7.94-.26,11.95-.37v4.52c-.48,.02-.94,.03-1.39,.04,.87,1.5,1.75,3,2.61,4.52,.87-1.54,1.69-3.07,2.56-4.61-.44,0-.88,0-1.31,.01v-4.51c3.87-.03,7.73-.07,11.61-.06v4.5c-.81,0-1.64-.02-2.45-.02-1.11,1.83-2.21,3.65-3.32,5.48-1.1,1.82-2.19,3.66-3.3,5.49h0Zm-28.21,5.92v-15.73c-2.9,.21-5.77,.42-8.63,.63v15.92c2.86-.28,5.74-.55,8.63-.82h0Z"/><path class="cls-1" d="M51.42,56.13v-1.56c.19-.02,.38-.03,.57-.05v-5.34c-.19,.02-.38,.03-.57,.05v-1.56c2.1-.2,4.19-.41,6.3-.61v2.26c-.67,.06-1.33,.13-2,.19v-.69c-.59,.06-1.16,.11-1.74,.17v1.89c.91-.09,1.82-.17,2.73-.26v1.57c-.91,.09-1.82,.17-2.73,.25v1.89c.58-.05,1.15-.1,1.74-.16v-.69c.67-.06,1.33-.12,2-.18v2.26c-2.11,.19-4.21,.38-6.3,.57h0Zm8.02-.71v-1.57c.19-.02,.38-.03,.57-.05v-5.37l-.57,.05v-1.57c1.04-.09,2.09-.18,3.14-.26v1.58c-.19,.01-.38,.03-.57,.05v5.38c.5-.04,1.01-.08,1.52-.12v-.69c.67-.05,1.33-.11,2-.16v2.27c-2.03,.16-4.06,.32-6.09,.48h0Zm20.83-2.24c-.44,.32-.88,.64-1.31,.96-1.19,.06-2.37,.13-3.55,.19-.43-.27-.85-.55-1.28-.83v-6.79c.42-.33,.84-.65,1.28-.98,1.18-.07,2.36-.14,3.55-.21,.43,.28,.87,.57,1.31,.85v1.38c-.67,.03-1.33,.06-2,.1v-.7c-.72,.04-1.43,.08-2.14,.12v5.42c.71-.04,1.42-.08,2.14-.12v-.69c.67-.04,1.33-.07,2-.1v1.39h0Zm5.98,.64v-1.59c.19,0,.38-.01,.57-.02-.07-.23-.12-.46-.18-.69-.64,.02-1.28,.05-1.91,.08-.07,.23-.12,.47-.18,.7,.19,0,.38-.02,.58-.03v1.59c-1.05,.04-2.1,.09-3.14,.13v-1.59c.18,0,.36-.02,.53-.02,.29-1.18,.58-2.37,.87-3.55,.29-1.19,.59-2.37,.89-3.56,.93-.04,1.86-.08,2.81-.11,.29,1.16,.59,2.33,.88,3.49,.29,1.16,.59,2.33,.89,3.49,.18,0,.36,0,.54-.02v1.59c-1.05,.03-2.1,.06-3.14,.09h0Zm-1.12-3.83c.37-.01,.73-.03,1.11-.05-.1-.37-.2-.73-.29-1.1-.09-.36-.18-.73-.27-1.09-.1,.37-.2,.75-.29,1.12-.09,.37-.18,.75-.27,1.12h0Zm11.5,3.56v-1.59c.18,0,.37,0,.55-.01v-3.28c-.3,.5-.59,1-.88,1.5-.29,.5-.58,1-.87,1.5-.29-.49-.58-.98-.87-1.47-.29-.49-.58-.98-.87-1.47v3.27c.18,0,.36,0,.54,0v1.59c-1.05,.02-2.1,.05-3.14,.08v-1.59c.2,0,.4-.01,.6-.02v-5.45c-.2,0-.39,.01-.58,.02v-1.6c.85-.03,1.71-.05,2.57-.07,.29,.49,.58,.98,.87,1.47,.29,.49,.58,.98,.87,1.47,.29-.5,.58-1,.87-1.5,.29-.5,.58-1,.88-1.51,.85-.02,1.71-.03,2.57-.05v1.6c-.2,0-.39,0-.58,.01v5.46c.2,0,.4,0,.6-.01v1.6c-1.05,.02-2.11,.04-3.15,.06h0Zm4.86-.07v-1.6c.19,0,.38,0,.58,0v-5.46c-.2,0-.39,0-.58,0v-1.6c1.04,0,2.1-.01,3.15-.02v1.6c-.2,0-.39,0-.58,0v5.46c.19,0,.38,0,.58,0v1.6c-1.05,0-2.11,.01-3.15,.02h0Zm9.62,0c-.37-.76-.74-1.51-1.1-2.27-.36-.75-.73-1.51-1.09-2.27v2.93c.19,0,.38,0,.58,0v1.6c-1.05,0-2.1-.01-3.14,0v-1.6c.19,0,.38,0,.58,0v-5.46c-.2,0-.39,0-.58,0v-1.6c.9,0,1.81,0,2.72,.01,.35,.76,.73,1.52,1.09,2.28,.35,.76,.73,1.52,1.1,2.27v-2.94c-.2,0-.39,0-.58,0v-1.6c1.04,0,2.09,.01,3.13,.02v1.6c-.2,0-.39,0-.58,0v7.05c-.71,0-1.42,0-2.13-.01h0Zm10.71-.73c-.43,.29-.87,.57-1.29,.86-1.24-.02-2.49-.05-3.72-.07-.43-.31-.85-.62-1.28-.92v-6.83c.42-.29,.84-.59,1.28-.89,1.23,.02,2.47,.05,3.72,.07,.42,.31,.85,.63,1.29,.95v6.83h0Zm-2.01-.74v-5.45c-.77-.01-1.52-.03-2.28-.04v5.45c.75,.01,1.51,.03,2.28,.04h0Zm17.61,2.26c-.72-.04-1.43-.08-2.14-.12-.29-.6-.58-1.2-.85-1.79-.28-.6-.57-1.19-.84-1.79-.2,0-.4-.02-.6-.03v1.92c.19,0,.38,.02,.58,.03v1.59c-1.05-.05-2.1-.09-3.14-.13v-1.59c.19,0,.38,.02,.57,.02v-5.43c-.19,0-.38-.02-.57-.03v-1.59c1.79,.08,3.57,.16,5.36,.26,.42,.33,.84,.65,1.28,.98v3.15c-.46,.31-.91,.62-1.37,.93,.31,.66,.62,1.32,.94,1.99,.26,.01,.52,.03,.79,.04v1.58h0Zm-4.44-5.32c.69,.03,1.38,.06,2.07,.1v-1.92c-.7-.04-1.39-.07-2.07-.1v1.92h0Zm6.16,5.41v-1.58c.19,.01,.38,.02,.57,.03v-5.41c-.19-.01-.38-.02-.57-.03v-1.59c2.1,.12,4.19,.27,6.3,.42v2.27c-.67-.05-1.33-.09-2-.14v-.69c-.59-.04-1.16-.08-1.74-.12v1.91c.91,.06,1.82,.13,2.73,.19v1.59c-.91-.06-1.82-.12-2.73-.19v1.91c.58,.04,1.15,.08,1.74,.12v-.69c.67,.05,1.33,.09,2,.14v2.27c-2.11-.14-4.21-.28-6.3-.39h0Zm12.28,.82v-1.57l.57,.05c-.07-.24-.12-.47-.18-.7-.64-.05-1.28-.1-1.91-.15-.07,.22-.12,.45-.18,.67,.19,.02,.38,.03,.58,.05v1.57c-1.05-.08-2.1-.16-3.14-.23v-1.58c.18,.01,.36,.02,.53,.04,.29-1.14,.59-2.28,.88-3.42,.29-1.14,.59-2.27,.89-3.41,.93,.08,1.86,.16,2.81,.24,.29,1.18,.58,2.36,.87,3.55,.29,1.18,.59,2.36,.89,3.54,.18,.01,.36,.03,.54,.04v1.57c-1.05-.08-2.1-.16-3.14-.25h0Zm-1.12-3.93c.37,.03,.73,.06,1.11,.09-.1-.37-.2-.75-.29-1.12-.09-.37-.18-.74-.27-1.12-.1,.36-.2,.71-.29,1.07-.09,.36-.18,.71-.27,1.07h0Zm5.98,4.32v-1.57c.19,.02,.38,.04,.58,.05v-5.36c-.2-.02-.39-.04-.58-.05v-1.57c1.04,.1,2.1,.2,3.15,.31v1.57c-.2-.02-.39-.04-.58-.05v5.35c.5,.05,1.01,.09,1.52,.14v-.69c.67,.06,1.33,.12,2.01,.19v2.24c-2.04-.19-4.07-.37-6.1-.55h0Z"/><path class="cls-1" d="M55.82,76.49v-7.57c1.61-1.03,3.23-2.07,4.84-3.11,4.69-.36,9.39-.67,14.1-.96,1.62,.8,3.27,1.58,4.89,2.37v7.69c-2.55,.12-5.09,.25-7.61,.4v-5.68c-2.9,.21-5.77,.42-8.63,.63v5.63c-2.55,.19-5.08,.39-7.59,.61h0Zm132.33-1c2.33-1.58,4.66-3.19,7.01-4.84-3.94-.56-7.89-1.12-11.81-1.67-4.38-.54-8.72-1.07-13.1-1.56-1.62,.89-3.26,1.76-4.89,2.63v7.13c2.56,.26,5.08,.54,7.59,.84v-4.72c2.54,.35,5.08,.69,7.63,1.05v2.5c2.54,.37,5.05,.76,7.57,1.18v-2.55h0Zm-162.53,0c-2.33-1.59-4.66-3.2-6.97-4.84,2.31-.33,4.64-.66,6.97-.99,6.76-.91,13.54-1.75,20.33-2.49,1.61,.88,3.23,1.76,4.85,2.62v7.16c-2.55,.25-5.08,.52-7.59,.8v-4.72c-2.61,.31-5.23,.67-7.86,1.04v4.63c-2.57,.33-5.1,.68-7.61,1.05v-4.6c-.72,.11-1.45,.23-2.14,.34h0Zm115.12-.26v-5.7c-.72-.05-1.45-.09-2.15-.13v-4.59c3.97,.23,7.96,.5,11.95,.77v4.67c-.72-.05-1.45-.11-2.17-.16v5.62c-2.52-.18-5.07-.34-7.62-.48h0Zm-28.66-.93l.12-.36c.56-1.65,1.09-3.3,1.64-4.96,.55-1.65,1.13-3.3,1.71-4.96,3.53,.05,7.1,.15,10.63,.25,.55,1.69,1.11,3.38,1.66,5.07,.55,1.69,1.12,3.38,1.68,5.07l.09,.29c-2.55-.1-5.12-.18-7.7-.24-.35-1.05-.7-2.1-1.06-3.15-.35,1.04-.7,2.07-1.04,3.11-2.56-.06-5.14-.09-7.73-.12h0Zm-22.54,.23l-.18-.3c-1.06-1.78-2.12-3.57-3.18-5.37-.99,.03-1.94,.08-2.89,.12v-4.55c3.97-.15,7.94-.26,11.95-.37v4.52c-.48,.02-.94,.03-1.39,.04,.87,1.5,1.75,3,2.61,4.52,.87-1.54,1.69-3.07,2.56-4.61-.44,0-.88,0-1.31,.01v-4.51c3.87-.03,7.73-.07,11.61-.06v4.5c-.81,0-1.64-.02-2.45-.02-1.11,1.83-2.21,3.65-3.32,5.48l-.22,.36c-4.64,.03-9.24,.11-13.79,.24h0Z"/></svg>