<?xml version="1.0" encoding="UTF-8"?>
<svg width="476px" height="116px" viewBox="0 0 476 116" version="1.1" xmlns="http://www.w3.org/2000/svg" xmlns:xlink="http://www.w3.org/1999/xlink">
    <title>Untitled 3</title>
    <g id="Page-1" stroke="none" stroke-width="1" fill="none" fill-rule="evenodd">
        <g id="svgLogo" transform="translate(-85.000000, -110.000000)" fill="#000000" fill-rule="nonzero">
            <g id="Wordmark" transform="translate(85.000000, 110.000000)">
                <g id="Group" transform="translate(0.085185, 0.000000)">
                    <path d="M139.327893,0.556544545 C132.749186,0.556544545 127.409946,5.9016016 127.409946,12.4874755 C127.409946,19.0733493 132.749186,24.4184064 139.327893,24.4184064 C145.9066,24.4184064 151.245841,19.0733493 151.245841,12.4874755 C151.245841,5.9016016 145.9066,0.556544545 139.327893,0.556544545 Z M128.681193,38.3696416 L128.681193,114.186731 L149.974593,114.186731 L149.974593,38.3696416 L128.681193,38.3696416 L128.681193,38.3696416 Z" id="Shape"></path>
                    <path d="M257.506261,36.7311271 C249.703978,36.7311271 237.706578,39.1332212 230.508137,48.7415976 C225.995208,41.8216577 215.952351,36.7311271 204.860714,36.7311271 C198.250226,36.7311271 189.701085,39.4195636 186.252825,43.6351592 L186.252825,38.3696416 L164.959426,38.3696416 L164.959426,114.186731 L186.252825,114.186731 L186.252825,76.3418178 C186.252825,66.28802 193.30825,58.0318158 201.253549,58.0318158 C210.851469,58.0318158 217.604973,63.2814254 217.604973,76.3418178 L217.604973,114.186731 L238.898373,114.186731 L238.898373,76.3418178 C238.898373,66.28802 245.953797,58.0318158 255.249797,58.0318158 C263.798938,58.0318158 270.854363,64.7926767 270.854363,76.3418178 L270.854363,114.186731 L291.988856,114.186731 L291.988856,76.3418178 C291.988856,54.4366286 280.754204,36.7311271 257.506261,36.7311271 Z" id="Path"></path>
                    <polygon id="Path" points="347.780741 73.8124605 385.886392 38.3696416 359.476221 38.3696416 327.2342 68.5628509 327.2342 2.33823023 305.9408 2.33823023 305.9408 114.186731 327.2342 114.186731 327.2342 93.1564765 333.240845 87.4614454 360.381985 114.186731 387.539014 114.186731"></polygon>
                    <path d="M474.794281,58.0477237 L474.794281,38.3696416 L456.806126,38.3696416 L456.806126,12.9965285 L435.496835,25.3092492 L435.496835,38.3696416 L424.103278,38.3696416 L424.103278,58.0477237 L435.496835,58.0477237 L435.496835,82.8163363 C435.496835,102.494418 451.705244,115.857061 474.349344,115.857061 L474.349344,94.6836356 C464.608409,94.6836356 456.806126,90.7702903 456.806126,82.2118358 L456.806126,58.0477237 L474.794281,58.0477237 L474.794281,58.0477237 Z" id="Path"></path>
                    <path d="M404.764421,0.556544545 C398.169824,0.556544545 392.830583,5.9016016 392.830583,12.4874755 C392.830583,19.0733493 398.169824,24.4184064 404.764421,24.4184064 C411.343128,24.4184064 416.682369,19.0733493 416.682369,12.4874755 C416.682369,5.9016016 411.343128,0.556544545 404.764421,0.556544545 Z M394.117722,38.3696416 L394.117722,114.186731 L415.411121,114.186731 L415.411121,38.3696416 L394.117722,38.3696416 L394.117722,38.3696416 Z" id="Shape"></path>
                    <path d="M114.490891,46.9599119 L92.0692586,46.9599119 L57.8726944,46.9599119 L57.8726944,68.7696537 L92.0692586,68.7696537 C87.4609855,83.2776657 73.8745253,93.7927928 57.8726944,93.7927928 C38.0571203,93.7927928 21.9917269,77.7098979 21.9917269,57.8727367 C21.9917269,38.0355756 38.0571203,21.9526807 57.8726944,21.9526807 C68.2810353,21.9526807 77.6564873,26.390987 84.2034132,33.4859139 L110.136867,33.4859139 C100.967993,13.7919239 81.0094033,0.142938939 57.8726944,0.142938939 C26.0120479,0.142938939 0.205718807,25.9932893 0.205718807,57.8727367 C0.205718807,89.7521842 26.0120479,115.602535 57.8726944,115.602535 C85.9990506,115.602535 109.4059,95.4472152 114.490891,68.7696537 C115.174186,65.2380981 115.523779,61.5951872 115.523779,57.8727367 C115.523779,54.1502863 115.174186,50.4914675 114.490891,46.9599119 Z" id="Path"></path>
                </g>
            </g>
        </g>
    </g>
</svg>