<?xml version="1.0" encoding="utf-8"?>
<!-- Generator: Adobe Illustrator 21.0.2, SVG Export Plug-In . SVG Version: 6.00 Build 0)  -->
<svg version="1.1" id="Layer_1" xmlns="http://www.w3.org/2000/svg" xmlns:xlink="http://www.w3.org/1999/xlink" x="0px" y="0px"
	 viewBox="0 0 231 44" style="enable-background:new 0 0 231 44;" xml:space="preserve">
<style type="text/css">
	.st0{fill:#00AE42;}
	.st1{fill:#3D3935;}
</style>
<rect x="6.7" y="7" class="st0" width="4.9" height="24.5"/>
<polygon class="st0" points="17.3,19.3 17.3,19.3 26.5,7 20.5,7 11.9,19.3 11.9,19.3 20.7,31.5 27.2,31.5 "/>
<polygon class="st0" points="48.8,5.9 43.9,7.1 43.9,31.6 48.8,31.6 "/>
<polygon class="st0" points="56.7,5.9 51.9,7.1 51.9,31.6 56.7,31.6 "/>
<polygon class="st0" points="72,15.2 67.9,25.8 63.8,15.2 58.8,15.2 65.6,31.4 62,39.5 66.8,39.5 70.2,31.6 77,15.2 "/>
<path class="st0" d="M41.5,23.1c0-4.9-3-8.2-7.5-8.2c-4.7,0-7.9,3.4-7.9,8.5c0,5.2,3.3,8.5,8.4,8.5c2.6,0,5.1-0.9,6.6-2.4l0.3-0.3
	L39,26.3l-0.4,0.3c-1,0.9-2.4,1.4-4,1.4c-2.2,0-3.7-1.1-4.2-3.2h11v-1.7C41.4,23.1,41.5,23.1,41.5,23.1z M30.6,21.3
	c0.5-1.7,1.7-2.6,3.4-2.6c1.6,0,2.7,0.9,3.1,2.6H30.6z"/>
<path class="st0" d="M73.7,30.3H74l0.4,0.7h0.3l-0.5-0.7c0.1,0,0.2-0.1,0.3-0.1c0.1-0.1,0.1-0.2,0.1-0.3c0-0.2-0.1-0.3-0.2-0.4
	s-0.3-0.1-0.5-0.1h-0.6V31h0.3L73.7,30.3L73.7,30.3z M73.7,30.1v-0.5H74h0.1h0.1l0.1,0.1v0.1c0,0.1,0,0.1,0,0.1V30h-0.1h-0.1h-0.4
	V30.1z M75.3,29.6c-0.1-0.2-0.2-0.3-0.3-0.5c-0.1-0.1-0.3-0.2-0.5-0.3s-0.4-0.1-0.6-0.1s-0.4,0-0.6,0.1S73,29,72.8,29.1
	c-0.1,0.1-0.2,0.3-0.3,0.5c-0.1,0.2-0.1,0.4-0.1,0.6s0,0.4,0.1,0.6s0.2,0.3,0.3,0.5c0.1,0.1,0.3,0.2,0.5,0.3s0.4,0.1,0.6,0.1
	s0.4,0,0.6-0.1s0.3-0.2,0.5-0.3c0.1-0.1,0.2-0.3,0.3-0.5c0.1-0.2,0.1-0.4,0.1-0.6C75.5,29.9,75.4,29.7,75.3,29.6 M75.1,30.6
	C75,30.7,75,30.9,74.9,31s-0.2,0.2-0.4,0.2c-0.1,0.1-0.3,0.1-0.5,0.1s-0.3,0-0.5-0.1c-0.1-0.1-0.3-0.1-0.4-0.3
	c-0.1-0.1-0.2-0.2-0.2-0.4c-0.1-0.1-0.1-0.3-0.1-0.5s0-0.3,0.1-0.5c0.1-0.1,0.1-0.3,0.2-0.4s0.2-0.2,0.4-0.2
	c0.1-0.1,0.3-0.1,0.5-0.1s0.3,0,0.5,0.1c0.1,0.1,0.3,0.1,0.4,0.2s0.2,0.2,0.2,0.4c0.1,0.1,0.1,0.3,0.1,0.5
	C75.1,30.3,75.1,30.5,75.1,30.6"/>
<path class="st1" d="M213.3,15.1h-4.5v16.3h4.5v-8.5c0-1.2,0.3-2.2,0.9-2.8c0.6-0.7,1.4-1,2.4-1c0.9,0,1.7,0.3,2.3,0.9
	c0.6,0.6,0.9,1.4,0.9,2.4v9h4.5v-9.5c0-2.2-0.6-3.9-1.8-5.2c-1.2-1.3-2.7-1.9-4.6-1.9c-0.9,0-1.7,0.2-2.5,0.7
	c-0.8,0.4-1.3,0.8-1.6,1c-0.2,0.3-0.4,0.5-0.6,0.6v-2H213.3z"/>
<path class="st1" d="M204.4,17.3c-1.7-1.7-3.7-2.5-6.1-2.5c-2.3,0-4.4,0.8-6.1,2.5c-1.7,1.7-2.6,3.7-2.6,5.9c0,2.3,0.9,4.2,2.6,5.9
	s3.7,2.5,6.1,2.5c2.3,0,4.4-0.8,6.1-2.5c1.7-1.7,2.6-3.7,2.6-5.9S206.1,19,204.4,17.3z M201.2,26.3c-0.8,0.8-1.7,1.2-2.8,1.2
	s-2-0.4-2.8-1.2s-1.2-1.9-1.2-3.1s0.4-2.2,1.2-3.1c0.7-0.8,1.7-1.2,2.7-1.2c1.1,0,2,0.4,2.8,1.3c0.8,0.8,1.2,1.9,1.2,3.1
	C202.3,24.5,201.9,25.5,201.2,26.3z"/>
<path class="st1" d="M188,10.4c0-0.8-0.2-1.4-0.7-1.8c-0.5-0.5-1.1-0.7-1.9-0.7c-0.7,0-1.3,0.2-1.8,0.7s-0.7,1.1-0.7,1.8
	c0,0.8,0.2,1.4,0.7,1.8c0.4,0.5,1.1,0.7,1.8,0.7c0.8,0,1.5-0.2,1.9-0.7C187.7,11.8,188,11.2,188,10.4"/>
<rect x="183.1" y="15.1" class="st1" width="4.5" height="16.3"/>
<path class="st1" d="M173.4,13.3c0,0.6-0.2,1.2-0.5,1.6c-0.4,0.4-0.8,0.6-1.3,0.6h-1.5v4h2.8v6.6c0,3.8,1.7,5.7,5.1,5.7
	c1.1,0,2.1-0.2,3-0.5v-3.8l-0.2,0.1c-0.1,0.1-0.3,0.1-0.6,0.2s-0.6,0.1-0.9,0.1c-0.6,0-1-0.2-1.4-0.5c-0.4-0.4-0.6-0.8-0.6-1.3v-6.5
	h3.3v-4h-3.3v-5.1h-4L173.4,13.3L173.4,13.3z"/>
<path class="st1" d="M167.1,16.6c-1.3-1.2-3-1.8-5-1.8c-0.8,0-1.6,0.1-2.3,0.3c-0.8,0.2-1.4,0.5-1.8,0.8c-0.5,0.3-0.9,0.6-1.3,1
	c-0.4,0.4-0.7,0.6-0.8,0.8c-0.1,0.1-0.2,0.3-0.3,0.3l2.5,2.5l0.4-0.4c0.2-0.3,0.7-0.6,1.3-0.9s1.3-0.4,2-0.4c0.9,0,1.6,0.2,2.1,0.7
	c0.5,0.4,0.7,1,0.7,1.7l-5.2,0.9c-1.5,0.3-2.7,0.8-3.5,1.7c-0.9,0.9-1.3,2-1.3,3.3s0.5,2.4,1.5,3.3s2.3,1.4,4,1.4
	c0.8,0,1.7-0.2,2.4-0.5c0.8-0.4,1.3-0.7,1.5-0.9s0.4-0.4,0.5-0.6v1.7h4.5V21.2C169,19.4,168.4,17.8,167.1,16.6z M164.5,24.4
	c0,1.1-0.3,2-0.9,2.7s-1.4,1-2.4,1c-1.4,0-2.2-0.6-2.2-1.7c0-1,0.6-1.6,1.8-1.8l3.7-0.7L164.5,24.4L164.5,24.4z"/>
<path class="st1" d="M138.5,23.3c0,2.3,0.9,4.2,2.6,5.9c1.7,1.7,3.8,2.5,6.2,2.5c0.8,0,1.6-0.1,2.4-0.4c0.8-0.2,1.4-0.5,1.9-0.8
	s0.9-0.6,1.3-1c0.4-0.4,0.7-0.6,0.8-0.8s0.2-0.3,0.3-0.4l-2.7-2.8l-0.4,0.6c-0.3,0.4-0.8,0.7-1.5,1.1s-1.4,0.5-2.1,0.5
	c-1.2,0-2.2-0.4-3-1.3c-0.9-0.9-1.3-1.9-1.3-3.2s0.4-2.3,1.3-3.2c0.8-0.9,1.9-1.3,3-1.3c0.7,0,1.4,0.2,2.1,0.6
	c0.7,0.4,1.1,0.7,1.3,1c0.2,0.2,0.3,0.4,0.4,0.6l2.8-2.8l-0.2-0.3c-0.2-0.2-0.4-0.5-0.8-0.8c-0.4-0.3-0.8-0.6-1.3-1
	c-0.5-0.3-1.1-0.6-1.9-0.8c-0.8-0.2-1.6-0.3-2.4-0.3c-2.4,0-4.5,0.8-6.2,2.5C139.4,19.1,138.5,21.1,138.5,23.3"/>
<path class="st1" d="M131.7,31.4h4.5V15.1h-4.5v8.7c0,1.2-0.3,2.2-0.9,2.8c-0.6,0.7-1.4,1-2.4,1c-0.9,0-1.7-0.3-2.3-0.9
	c-0.6-0.6-0.9-1.3-0.9-2.3v-9.3h-4.5v9.8c0,2.1,0.6,3.7,1.8,5c1.2,1.3,2.7,1.9,4.6,1.9c0.9,0,1.7-0.2,2.5-0.5
	c0.8-0.4,1.3-0.7,1.6-0.9c0.2-0.2,0.4-0.4,0.6-0.6L131.7,31.4L131.7,31.4z"/>
<path class="st1" d="M113.8,8.1v9l-0.5-0.6c-0.3-0.4-0.9-0.7-1.7-1.1c-0.8-0.4-1.7-0.6-2.6-0.6c-2.1,0-3.9,0.8-5.5,2.5
	c-1.6,1.6-2.3,3.6-2.3,6s0.8,4.4,2.3,6c1.6,1.6,3.4,2.5,5.5,2.5c0.6,0,1.2-0.1,1.7-0.2c0.6-0.2,1-0.3,1.3-0.6c0.3-0.2,0.7-0.4,1-0.7
	s0.5-0.4,0.6-0.6s0.2-0.2,0.2-0.3v2h4.5V8.1H113.8z M112.7,26.5c-0.8,0.8-1.7,1.3-2.8,1.3c-1.1,0-2-0.4-2.8-1.3
	c-0.8-0.8-1.2-1.9-1.2-3.2s0.4-2.4,1.2-3.2c0.8-0.8,1.7-1.3,2.8-1.3c1.1,0,2,0.4,2.8,1.3c0.8,0.8,1.2,1.9,1.2,3.2
	C113.8,24.6,113.4,25.6,112.7,26.5z"/>
<polygon class="st1" points="87.8,26.9 87.8,21.7 97.2,21.7 97.2,17.3 87.8,17.3 87.8,12.6 99.9,12.6 99.9,8.1 82.8,8.1 82.8,31.4 
	100.2,31.4 100.2,26.9 "/>
</svg>
