<svg enable-background="new 0 0 309 95" viewBox="0 0 309 95" xmlns="http://www.w3.org/2000/svg"><path clip-rule="evenodd" d="m30.83 56.06c-4.78-3.42-8.18-8.65-9.17-14.68 2.02.55 4.01 1.09 5.95 1.62 4.43 1.2 8.67 2.38 12.73 3.5-2.91 2.93-6.07 6.1-9.51 9.56" fill="#616465" fill-rule="evenodd"/><path clip-rule="evenodd" d="m44.97 60.23c-.35.02-.71.03-1.06.03-4.65 0-8.98-1.42-12.58-3.85 3.93-2.9 7.55-5.57 10.89-8.03.89 3.8 1.81 7.75 2.75 11.85" fill="#616465" fill-rule="evenodd"/><path clip-rule="evenodd" d="m56.77 56.21c-2.4 1.67-5.13 2.89-8.08 3.53l.58-9.95z" fill="#616465" fill-rule="evenodd"/><path clip-rule="evenodd" d="m64.07 47.79c-1.58 3.14-3.87 5.87-6.66 7.96l-6.13-7.92z" fill="#616465" fill-rule="evenodd"/><path clip-rule="evenodd" d="m43.91 15.15c12.42 0 22.56 10.13 22.56 22.55 0 3.15-.66 6.16-1.83 8.89l-5.19-1.68-9.75-3.13 7.32-7.89-9.02 6.18-2.61-9.33-2.4-8.49-.69 7.74-.75 8.24-13.3-11.17 10.94 12.97-11.55-.47c-2.02-.07-4.09-.15-6.22-.22-.04-.55-.06-1.09-.06-1.64-.01-12.42 10.13-22.55 22.55-22.55" fill="#00b6ef" fill-rule="evenodd"/><g fill="#616465"><path clip-rule="evenodd" d="m44.94 41.54c.69-.07 1.37.14 1.86.56.52.43.85 1.09.85 1.84-.01.77-.36 1.48-.92 1.97-.55.49-1.27.76-2.02.71-.71-.05-1.32-.38-1.72-.86-.38-.46-.59-1.07-.54-1.72.05-.64.34-1.22.77-1.67.44-.44 1.03-.76 1.72-.83" fill-rule="evenodd"/><path d="m103.93 50.9h-7.27l-11.74-20.41h-.17c.23 3.61.35 6.18.35 7.72v12.7h-5.11v-26.99h7.22l11.72 20.21h.13c-.18-3.51-.28-5.99-.28-7.44v-12.77h5.15z"/><path d="m130.24 50.9-1.96-6.42h-9.84l-1.96 6.42h-6.17l9.52-27.09h7l9.56 27.09zm-3.32-11.22c-1.81-5.82-2.83-9.11-3.05-9.87-.23-.76-.39-1.37-.49-1.81-.41 1.58-1.57 5.47-3.49 11.68z"/><path d="m156.35 23.92h5.78l-9.17 26.98h-6.24l-9.15-26.98h5.78l5.08 16.06c.28.95.58 2.05.88 3.31s.49 2.14.56 2.63c.14-1.13.6-3.11 1.38-5.94z"/><path d="m168.52 50.9v-26.98h5.72v26.98z"/><path d="m200.55 50.9-1.96-6.42h-9.84l-1.96 6.42h-6.17l9.52-27.09h7l9.56 27.09zm-3.32-11.22c-1.81-5.82-2.83-9.11-3.05-9.87-.23-.76-.39-1.37-.49-1.81-.41 1.58-1.57 5.47-3.49 11.68z"/><path d="m237.05 50.9h-7.27l-11.74-20.41h-.17c.23 3.61.35 6.18.35 7.72v12.7h-5.11v-26.99h7.22l11.72 20.21h.13c-.18-3.51-.28-5.99-.28-7.44v-12.77h5.15z"/><path d="m257.72 28.29c-2.15 0-3.82.81-5 2.43s-1.77 3.87-1.77 6.76c0 6.02 2.26 9.03 6.77 9.03 1.9 0 4.19-.47 6.88-1.42v4.8c-2.21.92-4.69 1.38-7.42 1.38-3.92 0-6.93-1.19-9.01-3.57s-3.12-5.8-3.12-10.25c0-2.81.51-5.26 1.53-7.37s2.49-3.73 4.4-4.85c1.91-1.13 4.16-1.69 6.73-1.69 2.62 0 5.25.63 7.9 1.9l-1.85 4.65c-1.01-.48-2.02-.9-3.05-1.26-1-.36-2-.54-2.99-.54z"/><path d="m288.22 50.9h-15.54v-26.98h15.54v4.69h-9.82v5.92h9.14v4.69h-9.14v6.96h9.82z"/><path d="m149.39 61.82h4.19c1.15 0 2.04.27 2.67.82.6.5.9 1.15.9 1.94 0 .59-.16 1.09-.49 1.5-.32.42-.78.71-1.37.88.59.12 1.07.38 1.46.79.38.41.58.94.58 1.58 0 1.28-.63 2.15-1.9 2.62-.48.17-1.09.26-1.82.26h-4.21v-10.39zm1.89 4.38h2.22c.56 0 .99-.12 1.28-.37s.43-.58.43-1-.14-.76-.42-1.01-.71-.38-1.27-.38h-2.24zm2.27 4.35c.61 0 1.05-.12 1.32-.37s.41-.57.41-.98-.14-.73-.42-.98-.72-.38-1.3-.38h-2.27v2.7h2.26z" opacity=".7"/><path d="m160.77 61.82 2.29 4.14 2.4-4.14h2.22l-3.7 6.1v4.29h-1.89v-4.29l-3.57-6.1z" opacity=".7"/><path d="m179.83 62.67c.66.57.98 1.39.98 2.45s-.33 1.88-.98 2.45-1.57.86-2.74.86h-1.76v3.78h-1.9v-10.39h3.66c1.17 0 2.08.28 2.74.85zm-2.74 4.11c.59 0 1.03-.15 1.33-.46s.45-.71.45-1.19-.15-.88-.45-1.2c-.3-.31-.74-.47-1.33-.47h-1.76v3.33h1.76z" opacity=".7"/><path d="m186.75 61.61c.69 0 1.33.11 1.9.34s1.07.57 1.49 1.02c.87.94 1.31 2.28 1.31 4.03 0 1.76-.44 3.12-1.31 4.08-.83.9-1.97 1.34-3.41 1.34-1.43 0-2.56-.46-3.39-1.38-.87-.95-1.31-2.3-1.31-4.05 0-1.77.44-3.12 1.31-4.06.82-.88 1.96-1.32 3.41-1.32zm2.75 5.42c0-1.19-.25-2.11-.74-2.75s-1.17-.97-2.01-.97-1.51.32-2.02.97c-.5.65-.75 1.56-.75 2.75s.25 2.1.75 2.74c.5.63 1.17.95 2.02.95.84 0 1.51-.32 2.01-.95.49-.64.74-1.56.74-2.74z" opacity=".7"/><path d="m194.64 61.82 2.29 7.89 2.22-7.2h1.28l2.35 7.23 2.43-7.92h2.13l-3.57 10.38h-1.98l-1.95-5.86-1.94 5.86h-1.98l-3.39-10.38z" opacity=".7"/><path d="m209.13 61.82h6.69v1.63h-4.8v2.74h4.5v1.63h-4.5v2.74h4.8v1.65h-6.69z" opacity=".7"/><path d="m226.24 65c0 .74-.21 1.37-.62 1.89-.42.52-1.01.88-1.79 1.09l2.78 4.22h-2.46l-2.29-4.05h-1.44v4.05h-1.89v-10.38h3.84c1.23 0 2.18.29 2.86.88.67.56 1.01 1.33 1.01 2.3zm-4.05 1.89c.69 0 1.22-.16 1.57-.47s.53-.73.53-1.25-.16-.93-.48-1.25c-.32-.31-.8-.47-1.44-.47h-1.95v3.44z" opacity=".7"/><path d="m234.29 64.68c-.17-.91-.81-1.36-1.92-1.36-.54 0-.97.11-1.27.33s-.46.48-.46.79.1.55.3.73.5.34.92.49l2.26.88c.77.3 1.36.67 1.78 1.13.42.45.62 1.02.62 1.7 0 .94-.35 1.68-1.06 2.23-.7.55-1.71.82-3.01.82-1.15 0-2.08-.28-2.8-.85-.8-.62-1.22-1.49-1.26-2.62h1.87c0 .85.44 1.39 1.33 1.62.27.07.62.11 1.06.11s.84-.11 1.22-.33.56-.51.56-.88-.1-.65-.3-.85-.53-.38-.99-.55l-2.06-.82c-.8-.31-1.41-.67-1.84-1.09s-.64-.99-.64-1.73c0-.86.34-1.55 1.01-2.05.68-.52 1.61-.78 2.78-.78s2.07.27 2.71.81c.63.54 1 1.29 1.1 2.26h-1.91z" opacity=".7"/><path d="m242.77 61.61c.64 0 1.2.08 1.66.23.47.16.88.37 1.22.65.67.54 1.11 1.31 1.31 2.29l-2.02.37c-.17-.54-.43-.98-.79-1.32s-.8-.5-1.34-.5c-.73 0-1.31.3-1.76.91-.48.66-.72 1.58-.72 2.74s.21 2.08.64 2.74 1.01.98 1.74.98 1.29-.18 1.66-.54.56-.82.56-1.38h2.03c0 1.16-.37 2.06-1.11 2.7-.74.63-1.76.95-3.05.95-1.38 0-2.47-.48-3.28-1.44-.82-.98-1.23-2.31-1.23-4 0-1.71.42-3.04 1.26-4 .83-.92 1.89-1.38 3.22-1.38z" opacity=".7"/><path d="m251.07 61.82v4.34h4.53v-4.34h1.89v10.38h-1.89v-4.4h-4.53v4.4h-1.89v-10.38z" opacity=".7"/><path d="m264.46 61.61c.69 0 1.33.11 1.9.34s1.07.57 1.49 1.02c.87.94 1.31 2.28 1.31 4.03 0 1.76-.44 3.12-1.31 4.08-.83.9-1.97 1.34-3.41 1.34-1.43 0-2.56-.46-3.39-1.38-.87-.95-1.31-2.3-1.31-4.05 0-1.77.44-3.12 1.31-4.06.83-.88 1.96-1.32 3.41-1.32zm2.75 5.42c0-1.19-.25-2.11-.74-2.75s-1.17-.97-2.01-.97-1.51.32-2.02.97c-.5.65-.75 1.56-.75 2.75s.25 2.1.75 2.74c.5.63 1.17.95 2.02.95.84 0 1.51-.32 2.01-.95.49-.64.74-1.56.74-2.74z" opacity=".7"/><path d="m275.39 61.61c.69 0 1.33.11 1.9.34s1.07.57 1.49 1.02c.87.94 1.31 2.28 1.31 4.03 0 1.76-.44 3.12-1.31 4.08-.83.9-1.97 1.34-3.41 1.34-1.43 0-2.56-.46-3.39-1.38-.87-.95-1.31-2.3-1.31-4.05 0-1.77.44-3.12 1.31-4.06.82-.88 1.96-1.32 3.41-1.32zm2.75 5.42c0-1.19-.25-2.11-.74-2.75-.5-.65-1.17-.97-2.01-.97s-1.51.32-2.02.97c-.5.65-.75 1.56-.75 2.75s.25 2.1.75 2.74c.5.63 1.17.95 2.02.95.84 0 1.51-.32 2.01-.95.49-.64.74-1.56.74-2.74z" opacity=".7"/><path d="m284.22 70.55h4.27v1.65h-6.16v-10.38h1.89z" opacity=".7"/></g></svg>