<svg xmlns="http://www.w3.org/2000/svg"><path clip-rule="evenodd" d="m30.83 56.06c-4.78-3.42-8.18-8.65-9.17-14.68 2.02.55 4.01 1.09 5.95 1.62 4.43 1.2 8.67 2.38 12.73 3.5-2.91 2.93-6.07 6.1-9.51 9.56" fill="#616465" fill-rule="evenodd"/><path clip-rule="evenodd" d="m44.97 60.23c-.35.02-.71.03-1.06.03-4.65 0-8.98-1.42-12.58-3.85 3.93-2.9 7.55-5.57 10.89-8.03.89 3.8 1.81 7.75 2.75 11.85" fill="#616465" fill-rule="evenodd"/><path clip-rule="evenodd" d="m56.77 56.21c-2.4 1.67-5.13 2.89-8.08 3.53l.58-9.95z" fill="#616465" fill-rule="evenodd"/><path clip-rule="evenodd" d="m64.07 47.79c-1.58 3.14-3.87 5.87-6.66 7.96l-6.13-7.92z" fill="#616465" fill-rule="evenodd"/><path clip-rule="evenodd" d="m43.91 15.15c12.42 0 22.56 10.13 22.56 22.55 0 3.15-.66 6.16-1.83 8.89l-5.19-1.68-9.75-3.13 7.32-7.89-9.02 6.18-2.61-9.33-2.4-8.49-.69 7.74-.75 8.24-13.3-11.17 10.94 12.97-11.55-.47c-2.02-.07-4.09-.15-6.22-.22-.04-.55-.06-1.09-.06-1.64-.01-12.42 10.13-22.55 22.55-22.55" fill="#00b6ef" fill-rule="evenodd"/></svg>