<?xml version="1.0" encoding="UTF-8"?><svg id="Layer_1" xmlns="http://www.w3.org/2000/svg" viewBox="0 0 230.65 268.98"><defs><style>.cls-1,.cls-2{fill:#fff;}.cls-3{fill:#5894cf;}.cls-4{fill:#18477e;}.cls-4,.cls-2,.cls-5{fill-rule:evenodd;}.cls-5{fill:#ffd02a;}</style></defs><path class="cls-5" d="M231.07,54.02l-65.86,62.91-6.14,1.16-7.61,9.58-12.83,7.75-24.81,20.12,5.6-.07-13.4,10.99-25.18,14.19-4.84,5.27-23.46,14.43-4.33,4.99L0,236.36l46.44-44.85,11.46-3.66,15.12-15.75,14.89-8.97-13.43,5.63,12.88-11.98,9.89-5.19,11.54-7.27,19.72-15.57,13.74-7.66,20.03-17.32,8.85-4.48,3.39-4.07,56.55-41.21h0Zm-33.05,84.28l-43.06,41.13-4.01,.76-4.97,6.26-8.38,5.07-21.33,20.3-16.46,9.27-3.16,3.44-15.34,9.43-2.83,3.26-21.27,9.28,41.19-34.8,7.78-9.14,6.65-2.48,5.25-2.74,12.89-10.18,8.98-5.01,13.1-11.32,5.79-2.93,2.22-2.66,36.97-26.94h0ZM15.13,253.26l67.57-42.99,2.29-5,9.78-4.48,9.32-9.32,33.37-21.31,17.41-18.51,5.52-3.02,17.26-16.99,5.17-2.64,36.63-34.63-76.37,52.42-14.44,7.22-5.38,7.88-5.27,5.97-17.44,13.56-9.43,10.12-19,13.46-5.69,6.61-4.19,2.04L15.13,253.26h0ZM161.21,80.67l-36.19,23.99-15.12,7.16-1.7,3.72-7.27,3.33-6.93,6.93-24.81,15.85-12.95,13.76-4.1,2.25-12.83,12.63-3.84,1.97-26.46,30.09,56-43.32,10.74-5.37,4-5.86,3.88-4.49-3.02-.08,15.99-10,7.05-7.47,14.13-10,4.23-4.92,4.19-.7,35.01-29.45h0Z"/><path class="cls-5" d="M101.9,78.48c10.47-.96,35.98,8.22,43.76,12.55l.87,.49,.65,.76c10.45,12.17,22.25,29.76,27,45.17,2.98,5.55,6.52,10.96,9.63,16.47,10.41,18.41,21.47,45.06-2.79,60.43l-3.92,2.48c-3.85,15.5-10.05,21.26-10.93,27.5-.33,3.76-.66,6.9-2.02,10.48-3.19,8.34-25.51,15.26-33.05,14.04-3.66,.56-14.78-7.27-12.64-19.06,0-.82,.03-1.62,.15-2.43,.24-1.67,.61-2.94,1.07-4.11-36.88,7.47-62.94-23.48-58.16-61.54l-1.11-9.46c-.58-4.98-1.52-9.97-2.4-14.91-1.01-5.71-1.98-11.43-2.6-17.2-.55-5.15-.83-10.36-.56-15.54l.02-.43,.09-.42c4.61-22.37,27.28-36.47,49.08-41.98l-2.14-3.29h0Z"/><path class="cls-2" d="M105.87,105.41l6.96,7.49,1.61,11.02-3.34,5.48,1.33,14.84s-3.3,30.26,3.83,34.1c-9.18,6.2-30.67-14.09-30.67-14.09-6.12,12.98-.41,29.07-.54,35.84,6.11,3.17,8.62,5.02,17.1,16.55-14.44,7.52-31.91-7.02-32.98-23.95l-1.32-20.71-3.06-23.31c-2.77-21.11-.93-30.17,6.37-41.89,10.29-9.52,22.22-15.44,28.21-16.07-3.92,4.31-6.21,6.3-7.78,10.38,7.48,2.58,8.35,.91,14.29,4.31h0Zm45.82,78.25l-16.96,3.31c8.45,37.1-3.85,59.55-2.55,59.87,1.3,.33,3.14,3.87,3.14,3.87l20.47-9.36,7.8-27.68-11.89-30.02h0Z"/><path class="cls-4" d="M134.81,189.55c2.29-.68,2.56,.69,4.68,4.29l10.58,17.4c4.55,7.49,4.17,5.57,2.19,13.91-.43,1.8-3.29,14.54-3.93,15.15-2.47-.04-4.57,.1-7.15,.81-.11,.03,.23-1.48,.13-1.45-2.72,.77-6.96,3.21-9.02,5.02,.62-1.83,1.71-3.76,2.48-5.81,.76-2.04,1.38-4.12,1.95-6.32,6.12-23.76-2.05-41.71-1.9-42.99h0Zm34.18-49.95c9.53,17.97,36.21,52.79,9.04,70,.07-4.96-.91-10.36-4.02-17.04,.49,4.53,.35,9.08-.38,13.65-.26,1.69-.58,3.37-.96,5.07-1.71,7.76-4.84,16.98-7.48,24.6-.68,1.97-2.44,6.2-2.61,8.08-.29,3.36-.51,5.91-1.67,8.96-.57,1.5-2.1,3.45-2.84,3.54-.32-.79-.34-3.78-.8-5.34-2.61,.59-4.39,6.92-5.08,8.78-1.2-1.2-2.23-4.37-2.15-5.84-1.79,.31-2.61,1.55-2.96,2.97-.29,1.26-1.65,5.46-2.34,6.54-2.22-.57-2.72-5.23-2.86-7.24l-2.92,.66c.63,2.09-.51,8.19-1.46,8.5-2.11-1.83-3.65-6.32-4.01-8.12-1.55,.03-2.18,1.23-2.42,2.65-.31,1.82,.06,4.82,.08,6.82-1.02-.16-6.14-5.71-6.95-7.4-1.05-2.2-1.08-4.82-.45-6.56,.5-1.39,.16-3.16,.39-4.73,.47-3.28,1.75-4.9,2.91-7.3,3.71-7.7,6.2-15.41,5.82-24.5-.18-4.21-1.96-12.83-4.18-15.72-.88,.12-2.17,.66-3.17,.91-1.07,.27-2.26,.37-3.38,.63,.15,2.15,3.64,6.67,4.06,9.21-6.37-.81-22.05-8.55-23.37-8.79-1.1,2.17-1.68,2.19-.99,3.32,.62,1.01,1.28,2.02,1.91,3.06l5.6,9.1c1.93,3,1.06,1.66,5.23,4.58,.93,.65,1.41,1.02,1.74,1.21,1.07,.62,3.58-.56,4.85-.89-.23,1.54-1.01,2.44-1.5,3.25,1.3,1,4.61-1.01,5.96-1.67,.61,1.73-1.98,3.93-2.09,4.17,1.06,.65,1.63,.68,3.54-.59,.65-.44,1.35-.83,2.03-1.21-.02,2.13-1.52,4.83-2.53,6.16-1.27,1.66-2.67,2.96-4.79,3.92-1.97,.9-12.08,1.76-14.99,1.96-28.92,1.98-47.65-36.71-38.3-61.19,.2,.76,.24,3.14,.34,4.17,1.44,14.52,1.48,26.13,15.32,33.22,5.15,2.64,9.4,1.88,15.43,1.5-.41-1.03-10.11-10.51-12.14-12.48-1.39-1.35-2.74-2.59-4.08-4.11-.76-.87-.48-2.38-.42-3.83,.05-1.29,.16-2.63,.31-3.9,.29-2.38,.75-4.82,1.35-6.98,.79-2.8,1.68-4.88,2.81-6.9l.13,.02c1.3-2.28,2.37-3.38,2.42-3.49,2.84,1.98,2.58,1.06,7.13,3.72-4.89-4.12-13.09-14.75-16.9-19.13l-1.88,1.37c-3.15-5.86-6.04-22.77-5.93-23.1,1.46-3.94,4.04-8.09,6.62-11.72-.02-.04-2.44-4.73-4.06-7.79,0-2.48,2.05-7.24,3.69-9.03-.15,1.89-.26,3.38-.04,4.54,2.34,1.87,3.38,2.8,8.23,5.14,.18,.13,3.78-.26,3.67-.1-2.41,3.25-7.19,15.44-8.59,20.12,.29,2.22,.25,8.81,12.56,25.21-1.82-6.01-2.72-10.82-3.18-16.89,.73-.18,2.1,1.43,2.07,.67-.16-4.64,1.95-8.35,2.85-10.76,.3-.8,3.95-1.21,4.42-1.4-1.57-1.41-4.98-3.76-6.46-5.02,.11-.46,1.79-1.47,5.4-1.87,1.06-.05,4.19,4.08,6.08,3.53,.86,.81,2.49,6.38,.98,7.22-1.03,1.21-4.85,.18-5.45,2.2-1.74,4.9-1.33,11.35,.39,13.09,.24,1.52,1.32,3.54,2.64,4.97-.13-2.34-.09-4.6,.65-4.75,.86-.17,1.98-.46,3.84-.6l.04-1.7c-.02-1.1-.86-2.01-2.2-2.86-1.4-1.54-1.24-4.5-1.22-5.56,.46-1.32,.52-2.38,6.42-2.42,5.88,.42,5.87,1.48,6.24,2.83-.05,1.06,0,3.71-1.5,5.16-1.33,1.11-2.27,1.18-2.4,2.96l-.04,1.7c2.37,.25,4.06,.72,4.98,.94,.73,.18,.47,3.46,.59,4.45,2.21-1.6,6.17-13.84,2.77-18.65-.74-1.05-2.7,.08-4.09-1.65-1.05-1.4,1.38-6.96,1.54-6.98,2.1-.15,4.91-3.9,6.26-3.94,4.14-.11,6.68,.18,8.62-.84,.74-1.28,.3-3.35-.07-7.39-.02-.2,2.76,.48,2.95,.36l6.36-3.86c.51-.92,.98-1.95,1.36-3.04,0-1.27-.08-2.53-.27-3.27-4.07,.38-7.35,1.51-11.62,2.54-.13-.04-11.85-3.99-14.96-3.82l-5.64,3.37-5.38-3.72c-3.37-.41-15.1,3.05-15.24,3.09-4.1-1.52-5.3-1.88-8.97-4.56,2.24,.22,4.82,.5,8.46,.55,4.56-1.48,9.74-2.64,14.27-3.1l6.76,1.49c2.07-.6,3.94-.86,5.79-1.3,1.52-1.13,15.34,3.59,14.9,2.15-3.69-12.27-15.57-20.01-17.27-21.88,8.71,1.19,22.11,7.71,26.78,10.31,10.55,12.28,21.87,29.65,26.05,43.67h0Zm-103,31.99c-1.56-13.32-6.35-30.64-5.53-46.7,2.87-13.92,13.99-24.72,24.74-28.86-5.94,7.99-13.93,13.2-17.66,30.67,.48,6.84,.32,20.62,.57,33.81l-2.12,11.09h0Zm84.87-21.02c.5,.52,1.64,1.94,1.61,1.48l-1.89-25.86,6.8,21.58-.1,9.69c-.18,.58-3.78-1.37-4.12-.88l-12.72,18.36,10.42-24.36h0Zm-47.61,12.68c.34,1.29,.09,2.67,.88,3.51,.16,.07,.96,.39,1.25,.48,1.9,.6,3.82,1.15,5.67,1.36,1.87-.09,3.82-.51,5.75-.99,.31-.08,1.13-.34,1.28-.39,.85-.79,.99-2.24,1.35-3.57,.96,1.28,.46,4.57-.41,5.26-2.53,1.1-5.44,1.84-8.04,1.94-.62,1.52-.48,2.98-.1,4.43-2.06,.14-2.89,.04-3.95-.64-1.4-1.7-2.76-5.82-3.85-6.24-.83-.75-.81-3.91,.17-5.14h0Zm25.82-31.06c-.85,3.1-4.81,4.1-7.42,3.6,2.1,3.11,9.69,1.13,7.42-3.6h0Z"/><path class="cls-5" d="M70.03,87.71v4.59l-9.63,.71c-2.68,.2-5.35,.4-8.02,.6l-3.25,.25-3.05,.27c-3.89,.35-7.78,.69-11.66,1.09l-11.8,1.21v-25.58l2.13-.18v-10.96c-2.27-2.34-4.51-4.7-6.73-7.07l-13.71-14.66H56.22v-9.47h36.73c-1.07-6.17-3.34-10.85-5.45-16.81l-1.13-3.19,3.37,.21c1,.06,5.95,2.37,8.61,3.74l2.08-1.87,2.98,1.47c3.19-2.73,6.06-6.68,8.6-9.86l1.75-2.2,1.75,2.2c2.53,3.19,5.41,7.13,8.6,9.86l2.98-1.47,2.08,1.87c2.67-1.37,7.62-3.68,8.61-3.74l3.37-.21-1.13,3.19c-2.11,5.96-4.37,10.64-5.45,16.81h36.69v9.47h51.96l-13.84,14.69c-1.52,1.61-3.05,3.22-4.59,4.83v28.71l-3.53,2.69c-1.61,1.23-3.23,2.45-4.85,3.66l-3.46,2.59-4.58-.41c-4.28-.38-8.56-.77-12.84-1.11l-3.85-.31-2.71-2.37c-1.07-.94-2.15-1.88-3.22-2.83-6.78-.36-13.56-.67-20.31-.94l-4.34-.14c-3.88-.12-7.75-.21-11.63-.28l-4.54-.08c-3.69-.03-7.39-.05-11.04-.06l-4.59,.02c-3.89,.02-7.78,.06-11.66,.13-2.49,.05-4.97,.06-7.46,.1-2.59,.04-5.22,.19-7.8,.29-4.11,.17-8.23,.34-12.34,.53h0Z"/><path class="cls-4" d="M113.87,83.45l-4.59,.02c-3.91,.02-7.81,.06-11.72,.13-10.78,.2-4.08-.06-15.36,.39-4.64,.19-9.28,.38-13.92,.6l-1.98,.1v4.68l-6.23,.46c-2.68,.2-5.36,.4-8.03,.6l-3.28,.25-3.08,.27c-3.91,.35-7.82,.7-11.72,1.1l-7.63,.78v-19.1l2.13-.18v-14.99l-.57-.59c-2.35-2.43-4.68-4.87-6.98-7.33l-8.87-9.48H56.09l1.98,1.64c.63,.52,1.25,1.03,1.88,1.55v-12.66h107.61v9.47h47.89l-8.95,9.5c-1.79,1.9-3.6,3.8-5.42,5.69v28.42l-2.28,1.74c-1.6,1.22-3.21,2.43-4.83,3.64l-2.24,1.68-2.96-.26c-4.29-.39-8.59-.77-12.88-1.11l-2.49-.2-1.75-1.53c-1.41-1.23-2.81-2.47-4.22-3.7-7.27-.39-14.55-.73-21.84-1.02l-4.34-.14c-3.9-.12-7.8-.21-11.69-.28l-4.58-.08c-3.7-.03-7.4-.05-11.1-.06h0Z"/><path class="cls-3" d="M86.71,74.79c-1.61,1.13-3.22,2.25-4.83,3.38-4.67,.19-9.32,.38-13.98,.6-1.61-1.02-3.2-2.05-4.79-3.08v-25.32c1.59-1.13,3.18-2.25,4.79-3.37h13.98c1.61,1.09,3.22,2.18,4.83,3.26v24.52h0Zm107.55-20.53c2.31-2.38,4.62-4.8,6.93-7.25h-24.67c-1.63,1.32-3.24,2.63-4.85,3.92v14.26c1.61,1.37,3.22,2.75,4.85,4.13,3.41,.16,6.82,.34,10.23,.52v8.58c-2.54-.18-5.06-.37-7.57-.55v-3.06c-2.5-.14-5-.28-7.51-.42v6.01c1.61,1.41,3.22,2.83,4.85,4.25,4.32,.34,8.64,.73,12.96,1.12,1.59-1.19,3.18-2.39,4.78-3.6v-15.04c-1.59-1.45-3.18-2.89-4.78-4.32-3.45-.12-6.88-.25-10.3-.38v-8.43c2.52,.04,5.04,.08,7.57,.13v3.11c2.5,.06,5,.12,7.5,.2v-3.17h0Zm-161.1,0c-2.31-2.39-4.62-4.8-6.91-7.25h27.08c1.59,1.31,3.18,2.62,4.79,3.91v13.63c-1.71,1.53-3.43,3.05-5.13,4.59,1.19,2.76,2.38,5.5,3.57,8.23,.96-.06,1.94-.12,2.92-.18v6.83c-2.69,.2-5.37,.4-8.05,.6-1.07-2.47-2.15-4.97-3.2-7.47-1.05-2.5-2.13-5.02-3.18-7.55-.75,.04-1.49,.08-2.22,.12v8.54c.72-.05,1.43-.1,2.15-.16v7.04c-3.95,.35-7.89,.7-11.83,1.11v-7.25c.7-.06,1.42-.12,2.13-.18v-24.62c-.72,.01-1.43,.02-2.13,.04h0Zm9.67,8.37c2.59-.09,5.18-.19,7.78-.27v-8.39c-2.61,.04-5.2,.08-7.78,.12v8.54h0Zm102.3,15.52v-5.75c.7,.02,1.42,.04,2.13,.06v-19.68c-.72,0-1.43,0-2.13-.01v-5.75h11.83v5.84c-.72,0-1.43-.01-2.15-.02v19.88c1.91,.06,3.81,.14,5.72,.22v-2.57c2.5,.1,5,.2,7.52,.3v8.55c-7.65-.41-15.29-.77-22.92-1.07h0Zm-15.45-.39v-5.68c.7,0,1.4,.02,2.12,.03-.23-.83-.44-1.67-.65-2.5-2.4-.03-4.79-.06-7.19-.08-.23,.82-.44,1.65-.65,2.47,.72,0,1.44,0,2.17,.02v5.66c-3.95-.03-7.89-.06-11.83-.07v-5.65c.66,0,1.33,0,1.99,0,1.1-4.15,2.2-8.31,3.31-12.47,1.1-4.16,2.2-8.33,3.32-12.49h10.55c1.1,4.19,2.21,8.39,3.31,12.59,1.1,4.21,2.2,8.43,3.32,12.66,.66,.02,1.35,.04,2.03,.05v5.73c-3.94-.12-7.87-.22-11.81-.28h0Zm-4.2-13.88c1.38,.02,2.76,.03,4.16,.04-.7-2.63-1.4-5.26-2.1-7.89-.7,2.62-1.38,5.24-2.06,7.85h0Zm-18.35,2.48v5.63c.7,0,1.4,0,2.1,0v5.65c-3.95,.02-7.89,.06-11.83,.14v-5.68c.7,0,1.42-.02,2.13-.03v-5.69c-1.07-2.27-2.15-4.54-3.2-6.82-1.05-2.28-2.12-4.56-3.17-6.85-.96,0-1.91,0-2.85,.01v-5.71h11.83v5.67c-.46,0-.91,0-1.36,0,.86,1.92,1.71,3.83,2.59,5.75,.84-1.92,1.68-3.84,2.54-5.76h-1.31v-5.66h11.53v5.65h-2.43c-1.1,2.29-2.2,4.57-3.29,6.85-1.08,2.28-2.19,4.57-3.27,6.85h0Zm-27.96,6.15v-19.72c-2.87,.02-5.72,.04-8.57,.06v19.94c2.85-.1,5.7-.19,8.57-.29h0Z"/><path class="cls-2" d="M85.65,63.27v-12.56c-1.38-.93-2.76-1.86-4.13-2.79h-13.23c-1.37,.96-2.74,1.92-4.11,2.89v13.8c1.78-.14,3.57-.28,5.38-.41v-12.25h1.06c2.86-.03,5.71-.05,8.57-.07h1.07v11.66c1.79-.1,3.58-.18,5.39-.26h0Zm113.31-15.35h-22.01c-1.4,1.14-2.8,2.27-4.21,3.41v13.49l.86,.73c6.8,.69,13.34,1.49,19.6,2.39v-.45c-1.39-1.27-2.79-2.53-4.19-3.79-3.29-.12-6.58-.24-9.87-.36l-1.02-.04v-10.23l1.09,.02c2.52,.04,5.05,.08,7.57,.13l1.04,.02v3.12c1.79,.04,3.58,.09,5.38,.14v-2.56l.24-.25c1.85-1.91,3.69-3.83,5.52-5.76h0Zm-165.31,5.42c.54-.01,1.08-.02,1.62-.03l1.08-.02v14.34c6.2-.86,12.67-1.62,19.38-2.28,.44-.39,.88-.79,1.33-1.18v-12.87c-1.4-1.12-2.78-2.25-4.16-3.39H28.47c1.71,1.82,3.44,3.62,5.18,5.42h0Zm8.12,9.29v-9.43l1.04-.02c2.6-.04,5.19-.09,7.79-.12l1.08-.02v10.19l-1.02,.03c-2.59,.08-5.19,.18-7.78,.27l-1.11,.04v-.95h0Zm111.98,1.29v-12h1.07c.36,0,.72,.01,1.08,.01v-4.01h-9.7v3.94c.36,0,.72,0,1.08,0h1.06v11.73c1.82,.1,3.62,.21,5.41,.32h0Zm-17.79-.88l-.85-3.25c-1.04-3.96-2.08-7.92-3.12-11.88h-8.85c-1.05,3.92-2.09,7.85-3.13,11.78l-.79,2.98c1.83,.02,3.66,.04,5.48,.07,.6-2.31,1.21-4.62,1.82-6.93l1.04-3.89,1.04,3.89c.63,2.35,1.25,4.7,1.88,7.05,1.84,.05,3.67,.1,5.49,.17h0Zm-20.89-11.29v-3.83h-9.4v3.84h1.79l-.55,1.24c-.85,1.91-1.69,3.83-2.53,5.75l-.98,2.23-1.01-2.22c-.88-1.91-1.73-3.83-2.59-5.75l-.55-1.24h1.85v-3.85h-9.7v3.88c.59,0,1.19,0,1.78,0h.73l.27,.58c1.05,2.28,2.11,4.57,3.17,6.85,.56,1.2,1.12,2.41,1.69,3.61,2.88-.07,5.79-.11,8.72-.14,.56-1.17,1.13-2.35,1.68-3.53,1.09-2.29,2.19-4.57,3.29-6.85l.27-.56h2.08Z"/><path class="cls-1" d="M65.25,42.4v-1.37h.5v-4.66h-.5v-1.37h5.51v1.96h-1.74v-.6h-1.53v1.65h2.39v1.37h-2.39v1.65h1.53v-.6h1.74v1.96h-5.51Zm7.02,0v-1.37h.5v-4.66h-.5v-1.37h2.75v1.37h-.5v4.66h1.33v-.6h1.75v1.96h-5.33Zm18.2-.77l-1.14,.77h-3.11l-1.11-.77v-5.85l1.11-.78h3.11l1.14,.78v1.18h-1.74v-.6h-1.88v4.66h1.88v-.6h1.74v1.19h0Zm5.22,.77v-1.37h.49l-.15-.6h-1.67l-.15,.6h.51v1.37h-2.75v-1.37h.46l1.54-6.03h2.45l1.54,6.03h.47v1.37h-2.75Zm-.97-3.33h.97l-.49-1.9-.48,1.9h0Zm10.05,3.33v-1.37h.48v-2.8l-1.52,2.54-1.51-2.54v2.8h.48v1.37h-2.75v-1.37h.52v-4.66h-.5v-1.37h2.25l1.51,2.54,1.52-2.54h2.25v1.37h-.5v4.66h.52v1.37h-2.75Zm4.25,0v-1.37h.5v-4.66h-.5v-1.37h2.75v1.37h-.5v4.66h.5v1.37h-2.75Zm8.4,0l-1.91-3.87v2.51h.51v1.37h-2.75v-1.37h.5v-4.66h-.5v-1.37h2.37l1.91,3.88v-2.51h-.5v-1.37h2.74v1.37h-.5v6.03h-1.87Zm9.36-.77l-1.12,.77h-3.25l-1.11-.77v-5.85l1.11-.78h3.25l1.12,.78v5.85h0Zm-1.75-.59v-4.66h-1.99v4.66h1.99Zm15.39,1.37h-1.87l-1.48-3.01h-.52v1.65h.5v1.37h-2.75v-1.37h.5v-4.66h-.5v-1.37h4.69l1.11,.78v2.71l-1.19,.87,.83,1.67h.68v1.37h0Zm-3.87-4.38h1.81v-1.65h-1.81v1.65h0Zm5.37,4.38v-1.37h.5v-4.66h-.5v-1.37h5.51v1.96h-1.74v-.6h-1.53v1.65h2.39v1.37h-2.39v1.65h1.53v-.6h1.74v1.96h-5.51Zm10.74,0v-1.37h.49l-.15-.6h-1.67l-.15,.6h.51v1.37h-2.75v-1.37h.46l1.54-6.03h2.45l1.54,6.03h.47v1.37h-2.75Zm-.97-3.33h.97l-.49-1.9-.48,1.9h0Zm5.22,3.33v-1.37h.5v-4.66h-.5v-1.37h2.75v1.37h-.5v4.66h1.33v-.6h1.75v1.96h-5.33Z"/><path class="cls-4" d="M96.01,30.98c-.4-.26-.45-.56-.62-1.32-1.05-7.68-3.39-11.96-5.78-18.71,.5,.03,7.92,3.51,9.07,4.22l2.12-1.91,2.91,1.43c3.74-2.81,7.25-7.58,10.06-11.11,2.81,3.53,6.32,8.3,10.06,11.11l2.91-1.43,2.12,1.91c1.15-.72,8.57-4.19,9.07-4.22-2.39,6.75-4.73,11.03-5.78,18.71-.17,.76-.21,1.06-.62,1.32-.3,.18-.5,.31-.61,.44-1.44,2.01-28.25,3.55-34.91-.44h0Zm17.76-22.31l-6.9,8.03,1.32,7.18c-1.24,.14-4.45,.89-5.77,1.38-.12-.8-.35-2.27-.52-3.57-.67-.81-7.25-6.48-7.44-6.39,.39,.87,1.4,3.44,1.6,3.82,.61,1.06,3.17,3.81,3.67,4.85,.11,.43-.05,.84-.36,1.68-.39,1.06-.56,2.09-.79,3.16-.06,.26,.32,.24,.5,.13,.52-.29,2.46-1.11,3.11-1.3,3.61-1.09,7.72-1.66,11.57-1.71,3.85,.05,7.96,.61,11.57,1.71,.65,.2,2.59,1.01,3.11,1.3,.18,.11,.56,.13,.5-.13-.23-1.08-.4-2.1-.79-3.16-.31-.84-.46-1.25-.36-1.68,.5-1.04,3.05-3.79,3.67-4.85,.2-.38,1.21-2.95,1.6-3.82-.19-.08-6.76,5.58-7.44,6.39-.17,1.3-.39,2.77-.52,3.57-1.32-.49-4.53-1.24-5.77-1.38l1.32-7.18-6.9-8.03h0Z"/><path class="cls-4" d="M113.77,23.9l.34-.45,2.4-3.21c.65-.89,.64-.98,.07-1.95l-2.48-3.96-.34-.54-.33,.54-2.48,3.96c-.56,.97-.58,1.06,.07,1.95l2.4,3.21,.33,.45h0Z"/><path class="cls-5" d="M129.9,26.43c-.12-.42-.88-2.23-.78-2.52,.12-.35,1.18-1.59,1.61-1.77-.12,.65-.34,1.31-.46,2.01-.09,.51-.27,1.7-.37,2.29h0Zm-32.25,0c.12-.42,.88-2.23,.78-2.52-.12-.35-1.18-1.59-1.61-1.77,.12,.65,.34,1.31,.46,2.01,.09,.51,.27,1.7,.37,2.29h0Z"/><path class="cls-5" d="M113.77,16.38l-.16,.26-1.21,1.93c-.13,.22-.2,.34-.2,.46l1.57,.6v-3.25h0Z"/></svg>