<?xml version="1.0" encoding="UTF-8"?><svg id="Layer_1" xmlns="http://www.w3.org/2000/svg" viewBox="0 0 236.33 216.97"><defs><style>.cls-1,.cls-2{fill:#5894cf;}.cls-2,.cls-3,.cls-4,.cls-5{fill-rule:evenodd;}.cls-3{fill:#18477e;}.cls-4{fill:#fff;}.cls-5{fill:#ffcb2a;}</style></defs><path class="cls-5" d="M236.33,.02l-66.91,67.85-6.39,1.41-7.65,10.25-13.17,8.51-25.32,21.82,5.85-.24-13.67,11.92-25.88,15.62-4.89,5.66-24.08,15.82-4.37,5.35L.38,197.92l47.16-48.35,11.87-4.18,15.32-16.94,15.29-9.84-13.87,6.3,13.09-12.93,10.18-5.74,11.84-7.96,20.14-16.89,14.13-8.44,20.41-18.74,9.12-4.97,3.42-4.36L236.33,.02h0Zm-31.92,89.17l-43.74,44.35-4.17,.92-5,6.7-8.61,5.56-21.67,21.89-16.92,10.21-3.2,3.7-15.74,10.34-2.86,3.5-21.96,10.37,41.98-37.68,7.85-9.8,6.87-2.8,5.4-3.03,13.17-11.04,9.24-5.52,13.34-12.25,5.96-3.25,2.24-2.85,37.82-29.33h0ZM16.73,215.13l69.32-47.06,2.23-5.3,10.08-4.99,9.45-10.04,34.23-23.33,17.63-19.9,5.67-3.33,17.52-18.31,5.33-2.93,37.22-37.36-78.23,57.2-14.88,8-5.38,8.41-5.32,6.41-17.81,14.73-9.55,10.88-19.45,14.67-5.74,7.09-4.32,2.26-48,42.89h0ZM164.1,30.07l-37.09,26.21-15.59,7.96-1.66,3.94-7.5,3.71-7.03,7.46-25.45,17.35-13.11,14.79-4.22,2.48-13.02,13.61-3.96,2.18-26.73,32.3,57.21-47.05,11.06-5.95,4-6.25,3.91-4.82h-3.16l16.41-10.95,7.14-8.03,14.46-10.9,4.27-5.28,4.36-.87,35.69-31.89h0Z"/><path class="cls-5" d="M159.24,128.02l2.97,9.37,10.87-.97,4.93,7.09-2.5,21.23-2.67,22.77-24.88,2.83-24.15,2.72-2.7-3.89-.54,4.26-33.03,3.73-32.31,3.67-4.99-7.17,2.15-15.53c-4.46-7.4-9.07-16.27-12.25-24.83l-.85,1.39-3.2-5.14c-3.97-6.39-4.76-16.94-4.44-24.36,.24-5.54,1.04-10.09,2.8-15.33,.94-2.79,1.92-5.48,2.67-8.33l.08-.3,.12-.28c3.15-7.06,12.17-17.77,20.46-19.4,4.28-4.04,10.35-5.81,16.22-5.57l.03-.24L37.3,33.28l121.34-2.17,1.1,1.01c6.47,5.93,12.99,11.82,19.57,17.64l.34,.3,3.94,5.68-3.42,28.8-3.45,28.86-17.49,14.63h0Z"/><path class="cls-3" d="M54.14,192.72c.99-7.11,1.97-14.2,2.95-21.3,.98-7.11,1.98-14.2,2.95-21.3,2.54-.24,5.1-.46,7.64-.68,1.75-12.63,3.48-25.25,5.22-37.88,1.7-12.33,3.38-24.67,5.07-37L45.35,36.87c18.64-.33,37.27-.67,55.93-1,18.64-.33,37.27-.67,55.94-1,6.5,5.96,13.02,11.85,19.62,17.68l2.88,4.14c-1.1,9.15-2.16,18.28-3.25,27.39-1.1,9.15-2.19,18.26-3.27,27.39-6.07,5.07-12.15,10.17-18.27,15.29,1.55,4.89,3.09,9.76,4.63,14.61,3.89-.35,7.79-.7,11.69-1.04l2.88,4.14c-.77,6.6-1.56,13.21-2.34,19.82-.78,6.61-1.55,13.23-2.32,19.82-7.31,.83-14.62,1.66-21.93,2.49-7.31,.83-14.62,1.65-21.93,2.48l-2.88-4.14c-1.14-3.7-2.29-7.41-3.43-11.13-.69,5.42-1.38,10.82-2.07,16.22l-30.11,3.4c-10.01,1.13-20.06,2.28-30.1,3.42l-2.88-4.14h0Z"/><path class="cls-1" d="M158.68,173.12c-9.62,1.05-19.26,2.09-28.9,3.13-2.68-8.63-5.37-17.33-7.99-26.06-2.63-8.77-5.23-17.62-7.8-26.5-2.64,.19-5.27,.38-7.89,.59-1.31,10.09-2.63,20.16-3.94,30.24,2.54-.24,5.1-.47,7.66-.71-1.08,8.34-2.17,16.64-3.25,24.96-7.07,.76-14.17,1.53-21.23,2.29-7.07,.76-14.15,1.54-21.21,2.3,1.16-8.53,2.34-17.07,3.52-25.63,2.54-.24,5.1-.47,7.66-.71,1.96-14.51,3.94-29.04,5.91-43.55,1.97-14.51,3.95-29.04,5.92-43.56-7.57-8.2-15.08-16.49-22.54-24.9,8.67-.2,17.34-.41,26.01-.61,10.39-.25,20.8-.49,31.19-.73,10.41-.24,20.82-.47,31.21-.72,4.94,4.51,9.92,8.98,14.91,13.39-.97,8.03-1.95,16.05-2.92,24.08-.96,8.01-1.93,16.03-2.9,24.06-6.63,5.56-13.29,11.15-19.97,16.78,2.97,9.63,5.96,19.18,9.01,28.72,3.49-.35,6.97-.67,10.46-.98-.97,8.05-1.93,16.09-2.9,24.13h0Zm-49.27-74.01c9.12-.53,18.25-1.06,27.37-1.59,1.23-9.91,2.49-19.81,3.72-29.72-9.04,.35-18.09,.72-27.15,1.07-4.35,.17-8.72,.35-13.06,.52,4.12,1.6,8.24,3.19,12.37,4.77-1.08,8.34-2.17,16.64-3.25,24.94h0Z"/><path class="cls-4" d="M89.15,66.17c9.26-.34,18.52-.68,27.77-1.02,9.24-.34,18.52-.68,27.77-1.04-1.52,12.26-3.06,24.48-4.6,36.7-11.67,.72-23.31,1.42-34.96,2.14,1.14-8.75,2.3-17.49,3.44-26.22-5.9-2.28-11.83-4.56-17.71-6.89-1.13,8.35-2.26,16.71-3.39,25.04-1.13,8.35-2.25,16.69-3.36,25.03,11.82-2.36,23.42-4.46,34.76-6.33,11.31-1.87,22.36-3.49,33.04-4.89,2.18-1.84,4.37-3.67,6.57-5.51,.9-7.52,1.83-15.05,2.73-22.57,.91-7.54,1.83-15.06,2.75-22.6-4.31-3.82-8.58-7.65-12.84-11.52-13,.33-26.02,.66-39.03,1-12.99,.34-25.99,.66-38.99,.98,5.31,5.96,10.69,11.85,16.05,17.68h0Z"/><path class="cls-3" d="M59.6,164.71l8.43,28.07c-8.64-7.7-22.74-32.73-26.82-48.37-.65,1.06-1.29,2.11-1.94,3.17-3.53-5.68-4.16-15.75-3.88-22.22,.5-11.34,3.15-14.45,5.35-22.88,3.52-7.89,12.8-17.08,18.81-17.39,8.62-9.59,30.1-6.29,31.04,9.19-3.26-.84-4.13,.35-5.92,1.34,1.18,1.3,2.97,3.38,3.5,5.52-2.04,.63-3.57,1.49-4.48,2.64,1.34,1.18,2.5,2.91,3.42,5.44-3.06,.24-5.59,1.12-7.11,3.21,2.8,.8,6.05,2.31,8.02,5.74-1.5,.83-4.45,2.75-4.58,3.43,2.81,.25,4.69,1.65,6.26,3.44-6.91,3.93-8.38,8.5-8.28,13.25-2.72,12.98-14.56,17.62-21.83,26.43h0Z"/><path class="cls-2" d="M56.97,94.05c-1.78,2.77-3.03,4.4-3.33,7.41-.35,3.62,1.52,3.8-.9,7.31-2.69,3.92-4.33,11.66-2.92,14.26l2.34-2.95-.24,2.37c-2.79,10.12-5.21,21.25-1.6,31.4-2.71-3.45-4.26-9.57-4.69-13.57-.19-1.77-.06-2.98-.26-4.81l-2.54,1.87c-2.15-6.27-.31-21.29,5.79-30.01-1.53-.71-2.7,.88-2.95,1.05-.02,.02,2.07-13.15,11.3-14.32h0Z"/><path class="cls-4" d="M66.19,94.48c-1.29-2.59-.12-4.5,1.86-6.21,5.27-4.26,12.26-2.55,17.19,3.04-2.48-.84-6.6-2.11-9.79,.04-3.48,2.18-2.12,.19-6.9,1.81l-2.36,1.31h0Z"/><path class="cls-4" d="M82.65,99.33c-3.82-.94-7.42-1.9-10.22,.82-2.98,2.89-.92,2.09-4.65,3.43-1.73,.62-4.43,.83-4.93-1.84-.81-4.26,6.69-6.9,8.69-7.11,3.76-.39,7.8,1.05,11.11,4.69h0Z"/><path class="cls-4" d="M80.6,107.18c-13.65,.02-7.81,6.56-13.67,8.27-1.35,.4-4.42,.77-5.1-1.82-1.21-4.65,9.79-13.3,18.76-6.46h0Z"/><path class="cls-4" d="M81.51,118.1l-2.44,.28c-8.48,.82-5.75,6.25-10.18,7.23-5.9,1.3-6.35-5.67,2.31-9.24,3.06-1.26,6.18-.54,10.31,1.72h0Z"/><path class="cls-4" d="M83.16,124.42c-10.94,3.93-4.66,7.01-9.05,10.19-1.09,.79-3.33,1.39-4.42-.22-1.83-2.69,3.2-13.09,13.47-9.97h0Z"/></svg>