<?xml version="1.0" encoding="UTF-8"?><svg id="Layer_1" xmlns="http://www.w3.org/2000/svg" viewBox="0 0 186.46 213.29"><defs><style>.cls-1,.cls-2{fill:#fff;}.cls-3,.cls-4{fill:#5894cf;}.cls-4,.cls-5,.cls-2{fill-rule:evenodd;}.cls-5{fill:#18477e;}</style></defs><path class="cls-5" d="M93.62,74.93l-4.22,.02c-3.59,.02-7.19,.06-10.78,.12-9.91,.18-3.76-.06-14.12,.36-4.27,.17-8.53,.35-12.8,.55l-1.82,.09v4.3l-5.73,.43c-2.46,.18-4.92,.37-7.39,.55l-3.01,.23-2.83,.25c-3.59,.32-7.19,.64-10.78,1.01l-7.02,.72v-17.57l1.96-.17v-13.78l-.52-.54c-2.16-2.23-4.3-4.48-6.42-6.74L0,36.06H40.48l1.82,1.51c.58,.48,1.15,.95,1.73,1.42v-11.64h98.95v8.71h44.04l-8.23,8.73c-1.65,1.75-3.31,3.49-4.98,5.23v26.14l-2.1,1.6c-1.47,1.12-2.95,2.24-4.44,3.35l-2.06,1.54-2.72-.24c-3.95-.35-7.9-.71-11.85-1.02l-2.29-.18-1.61-1.41c-1.3-1.13-2.59-2.27-3.88-3.41-6.69-.36-13.38-.67-20.08-.94l-3.99-.13c-3.58-.11-7.17-.2-10.76-.26l-4.21-.07c-3.4-.03-6.81-.05-10.21-.06h0Z"/><path class="cls-3" d="M68.64,66.97c-1.48,1.04-2.96,2.07-4.44,3.11-4.3,.17-8.58,.35-12.85,.56-1.48-.94-2.94-1.89-4.41-2.83v-23.28c1.46-1.04,2.93-2.07,4.41-3.1h12.85c1.48,1,2.96,2,4.44,3v22.55h0Zm98.9-18.88c2.13-2.19,4.25-4.41,6.37-6.67h-22.68c-1.5,1.21-2.98,2.42-4.46,3.61v13.11c1.48,1.26,2.96,2.52,4.46,3.8,3.14,.14,6.27,.31,9.41,.48v7.89c-2.33-.17-4.65-.34-6.96-.5v-2.82c-2.3-.12-4.6-.25-6.9-.39v5.53c1.48,1.3,2.96,2.6,4.46,3.91,3.97,.32,7.95,.67,11.92,1.03,1.46-1.1,2.93-2.2,4.39-3.31v-13.83c-1.46-1.33-2.93-2.66-4.39-3.97-3.17-.11-6.32-.23-9.47-.35v-7.75c2.32,.04,4.63,.08,6.96,.12v2.86c2.3,.06,4.6,.11,6.9,.18v-2.92h0Zm-148.14,0c-2.12-2.19-4.25-4.42-6.35-6.67h24.9c1.46,1.21,2.93,2.41,4.41,3.59v12.54c-1.58,1.4-3.15,2.81-4.71,4.22,1.09,2.54,2.19,5.06,3.28,7.57,.88-.06,1.79-.11,2.69-.16v6.28c-2.48,.18-4.94,.37-7.4,.56-.98-2.27-1.98-4.57-2.94-6.87-.97-2.3-1.96-4.61-2.93-6.94-.69,.04-1.37,.07-2.04,.11v7.85c.66-.05,1.32-.1,1.98-.14v6.48c-3.64,.32-7.25,.65-10.87,1.02v-6.66c.64-.05,1.3-.11,1.96-.16v-22.64c-.66,.01-1.32,.02-1.96,.04h0Zm8.9,7.7c2.38-.08,4.76-.17,7.16-.25v-7.71c-2.4,.03-4.78,.07-7.16,.11v7.85h0Zm94.07,14.27v-5.29c.64,.02,1.3,.03,1.96,.05v-18.1c-.66,0-1.32,0-1.96-.01v-5.29h10.87v5.37c-.66,0-1.32-.01-1.98-.01v18.28c1.75,.06,3.51,.12,5.26,.21v-2.37c2.3,.09,4.6,.18,6.92,.28v7.87c-7.03-.38-14.06-.71-21.07-.98h0Zm-14.2-.36v-5.22c.64,0,1.29,.02,1.95,.03-.21-.76-.4-1.53-.59-2.3-2.2-.03-4.41-.06-6.61-.08-.21,.76-.4,1.52-.59,2.28,.66,0,1.32,0,1.99,.01v5.21c-3.63-.03-7.25-.05-10.87-.06v-5.2c.61,0,1.22,0,1.84,0,1.01-3.82,2.03-7.64,3.04-11.46,1.01-3.82,2.03-7.65,3.06-11.48h9.7c1.01,3.86,2.03,7.71,3.04,11.58,1.01,3.87,2.03,7.75,3.06,11.64,.61,.02,1.24,.03,1.87,.05v5.27c-3.62-.11-7.24-.2-10.86-.26h0Zm-3.86-12.76c1.27,.01,2.54,.03,3.83,.04-.64-2.42-1.29-4.84-1.93-7.26-.64,2.41-1.27,4.81-1.9,7.22h0Zm-16.87,2.28v5.18c.64,0,1.29,0,1.93,0v5.2c-3.63,.02-7.25,.06-10.87,.13v-5.23c.64,0,1.3-.01,1.96-.02v-5.23c-.98-2.09-1.98-4.18-2.95-6.27-.97-2.1-1.95-4.2-2.91-6.3-.88,0-1.75,0-2.62,.01v-5.25h10.87v5.21c-.42,0-.84,0-1.26,0,.79,1.76,1.58,3.52,2.38,5.28,.77-1.76,1.54-3.53,2.33-5.3h-1.21v-5.2h10.6v5.2h-2.23c-1.01,2.1-2.03,4.2-3.02,6.3-1,2.1-2.01,4.2-3.01,6.3h0Zm-25.71,5.65v-18.13c-2.64,.02-5.26,.04-7.88,.06v18.34c2.62-.09,5.24-.18,7.88-.26h0Z"/><path class="cls-2" d="M67.66,56.38v-11.55c-1.27-.85-2.54-1.71-3.8-2.57h-12.16c-1.26,.88-2.52,1.77-3.78,2.65v12.69c1.63-.13,3.28-.26,4.94-.37v-11.27h.97c2.63-.02,5.25-.05,7.88-.07h.99v10.72c1.64-.09,3.3-.17,4.96-.24h0Zm104.19-14.12h-20.24c-1.29,1.04-2.58,2.09-3.87,3.13v12.4l.79,.67c6.25,.63,12.27,1.37,18.02,2.2v-.42c-1.28-1.16-2.56-2.32-3.85-3.48-3.03-.11-6.05-.22-9.08-.33l-.94-.03v-9.41l1,.02c2.32,.04,4.64,.08,6.96,.12l.96,.02v2.87c1.65,.04,3.29,.08,4.94,.13v-2.35l.23-.23c1.7-1.76,3.39-3.52,5.07-5.29h0ZM19.85,47.25c.5-.01,1-.02,1.49-.03l1-.02v13.19c5.7-.79,11.65-1.49,17.82-2.09,.41-.36,.81-.72,1.22-1.09v-11.84c-1.28-1.03-2.56-2.07-3.82-3.12H15.09c1.57,1.67,3.16,3.33,4.76,4.99h0Zm7.47,8.54v-8.67l.96-.02c2.39-.04,4.77-.08,7.16-.11h.99v9.36l-.94,.03c-2.39,.08-4.77,.16-7.15,.25l-1.02,.04v-.87h0Zm102.97,1.18v-11.04h.98c.33,0,.66,.01,.99,.01v-3.69h-8.92v3.62c.33,0,.66,0,.99,0h.97v10.79c1.67,.09,3.33,.19,4.98,.3h0Zm-16.36-.81l-.78-2.98c-.96-3.64-1.91-7.28-2.87-10.92h-8.14c-.97,3.61-1.92,7.22-2.88,10.83l-.73,2.75c1.69,.01,3.37,.03,5.04,.06,.55-2.13,1.11-4.25,1.68-6.37l.96-3.58,.95,3.58c.58,2.16,1.15,4.32,1.73,6.49,1.69,.04,3.37,.1,5.04,.15h0Zm-19.21-10.39v-3.52h-8.65v3.53h1.65l-.51,1.14c-.78,1.76-1.56,3.53-2.33,5.29l-.9,2.05-.93-2.04c-.8-1.76-1.59-3.53-2.38-5.29l-.51-1.14h1.42c.09,0,.19,0,.28,0v-3.54h-8.92v3.57c.55,0,1.09,0,1.64,0h.67l.24,.53c.97,2.1,1.94,4.2,2.91,6.3,.51,1.11,1.03,2.21,1.55,3.32,2.65-.06,5.32-.1,8.02-.13,.52-1.08,1.04-2.16,1.55-3.24,1-2.1,2.01-4.2,3.03-6.3l.25-.52h1.91Z"/><path class="cls-1" d="M48.91,37.18v-1.25h.46v-4.29h-.46v-1.25h5.07v1.8h-1.6v-.55h-1.4v1.51h2.19v1.26h-2.19v1.51h1.4v-.55h1.6v1.8h-5.07Zm6.45,0v-1.25h.46v-4.29h-.46v-1.25h2.53v1.25h-.46v4.29h1.22v-.55h1.61v1.8h-4.9Zm16.73-.71l-1.05,.71h-2.86l-1.02-.71v-5.37l1.02-.71h2.86l1.05,.72v1.09h-1.6v-.55h-1.72v4.29h1.72v-.55h1.6v1.1h0Zm4.8,.71v-1.25h.45l-.14-.55h-1.54l-.14,.55h.47v1.25h-2.53v-1.25h.43l1.41-5.54h2.26l1.41,5.54h.43v1.25h-2.52Zm-.89-3.06h.89l-.45-1.74-.44,1.74h0Zm9.23,3.06v-1.25h.44v-2.57l-1.4,2.34-1.39-2.34v2.57h.44v1.25h-2.53v-1.25h.48v-4.29h-.46v-1.25h2.07l1.39,2.34,1.4-2.34h2.07v1.25h-.46v4.29h.48v1.25h-2.52Zm3.91,0v-1.25h.46v-4.29h-.46v-1.25h2.53v1.25h-.46v4.29h.46v1.25h-2.53Zm7.72,0l-1.75-3.56v2.31h.47v1.25h-2.53v-1.25h.46v-4.29h-.46v-1.25h2.18l1.76,3.56v-2.31h-.47v-1.25h2.52v1.25h-.47v5.54h-1.72Zm8.6-.71l-1.03,.71h-2.98l-1.02-.71v-5.37l1.02-.71h2.98l1.03,.71v5.37h0Zm-1.61-.55v-4.29h-1.83v4.29h1.83Zm14.14,1.25h-1.72l-1.36-2.77h-.48v1.51h.46v1.25h-2.53v-1.25h.46v-4.29h-.46v-1.25h4.31l1.02,.71v2.5l-1.09,.8,.76,1.53h.63v1.25h0Zm-3.56-4.03h1.66v-1.51h-1.66v1.51h0Zm4.94,4.03v-1.25h.46v-4.29h-.46v-1.25h5.07v1.8h-1.6v-.55h-1.4v1.51h2.19v1.26h-2.19v1.51h1.4v-.55h1.6v1.8h-5.07Zm9.87,0v-1.25h.45l-.14-.55h-1.54l-.14,.55h.46v1.25h-2.53v-1.25h.43l1.41-5.54h2.25l1.41,5.54h.44v1.25h-2.52Zm-.9-3.06h.89l-.45-1.74-.44,1.74h0Zm4.8,3.06v-1.25h.46v-4.29h-.46v-1.25h2.53v1.25h-.46v4.29h1.22v-.55h1.61v1.8h-4.9Z"/><path class="cls-5" d="M77.2,26.69c-.37-.24-.41-.51-.57-1.21-.97-7.06-3.12-11-5.32-17.2,.46,.03,7.28,3.22,8.34,3.88l1.95-1.75,2.67,1.32c3.43-2.58,6.66-6.97,9.25-10.21,2.58,3.25,5.81,7.63,9.25,10.21l2.67-1.32,1.95,1.75c1.06-.66,7.88-3.86,8.34-3.88-2.2,6.2-4.35,10.14-5.31,17.2-.16,.7-.19,.98-.57,1.21-.28,.17-.46,.28-.56,.41-1.33,1.85-25.98,3.26-32.1-.41h0Z"/><path class="cls-2" d="M93.53,6.17l-6.34,7.39,1.22,6.6c-1.14,.13-4.09,.82-5.31,1.27-.11-.74-.32-2.08-.48-3.28-.62-.75-6.66-5.96-6.84-5.88,.36,.8,1.29,3.16,1.47,3.51,.57,.97,2.91,3.5,3.37,4.46,.1,.39-.05,.77-.33,1.54-.36,.97-.51,1.92-.72,2.91-.05,.24,.29,.22,.46,.12,.48-.27,2.26-1.02,2.86-1.2,3.32-1.01,7.1-1.52,10.64-1.57,3.54,.05,7.32,.56,10.64,1.57,.6,.18,2.38,.93,2.86,1.2,.17,.1,.51,.12,.46-.12-.21-.99-.37-1.93-.72-2.91-.28-.77-.43-1.15-.33-1.54,.46-.95,2.81-3.49,3.37-4.46,.18-.35,1.11-2.71,1.47-3.51-.17-.08-6.22,5.13-6.84,5.88-.15,1.2-.36,2.55-.48,3.28-1.21-.45-4.17-1.14-5.31-1.27l1.22-6.6-6.34-7.39h0Z"/><path class="cls-5" d="M93.53,20.18l.31-.41,2.21-2.95c.6-.82,.59-.91,.07-1.8l-2.28-3.64-.31-.49-.31,.49-2.28,3.64c-.52,.89-.53,.97,.07,1.8l2.21,2.95,.31,.41h0Z"/><path class="cls-2" d="M108.35,22.5c-.11-.38-.81-2.05-.72-2.32,.11-.32,1.08-1.46,1.49-1.63-.11,.6-.31,1.21-.43,1.85-.09,.47-.24,1.56-.34,2.1h0Zm-29.65,0c.11-.38,.81-2.05,.72-2.32-.11-.32-1.08-1.46-1.48-1.63,.11,.6,.31,1.21,.43,1.85,.09,.47,.24,1.56,.34,2.1h0Z"/><path class="cls-2" d="M93.53,13.26l-.15,.24-1.11,1.77c-.12,.2-.18,.32-.19,.42l1.45,.56v-2.99h0Z"/><path class="cls-4" d="M93.02,85.59c3.47-1.1,6.62-1.61,9.74-2.42,10.5,1.81,22.52,3.47,26.06,5.66,7.56-1.41,8.07-2.28,12.64-2.95,1.98,.15,5.72,1.52,8.56,2.06,5,5.62,1.35,17.49-2.35,27.17,6.08,12.42,10.86,16.78,13.24,25.36,.35,13.16-3.91,30.2-16.39,44.82-1.67,1.95-1.87-3.59-3.44-1.77-12.96,15.04-28.24,22.1-46.69,29.77-30.3-9.18-33.63-14.45-54.22-37.06l-3.12,2.39c-5.55-9.79-11.08-38.23-10.92-38.8,2.32-6.71,6.51-13.83,10.74-20.06-.03-.08-4.31-7.89-7.16-13.01-.09-4.18,3.18-12.31,5.88-15.41l7.66-2.81c3.8,.28,8.17,.66,14.31,.6,7.64-2.68,16.35-4.84,23.99-5.8l11.48,2.25h0Z"/><path class="cls-2" d="M87.49,89.74l5.95,6.4,2.75,18.84-9.02,5.36,5.58,29.37s-5.64,51.7,6.55,58.27c-8.16,5.51-20.02-15.63-34.52-15.49-26.65-14.11-25.52-39.73-25.52-72.36,0-13.45-9.07-17.1-3.69-28.79l7.66-2.81c12.79,4.4,34.11-4.6,44.25,1.21h0Z"/><path class="cls-5" d="M94.39,213.29c-30.3-9.18-33.63-14.45-54.22-37.06l-3.12,2.39c-5.55-9.79-11.08-38.23-10.92-38.8,2.32-6.71,6.51-13.83,10.74-20.06-.03-.08-4.31-7.89-7.16-13.01-.09-4.18,3.18-12.31,5.88-15.41-.19,3.2-.3,5.73,.12,7.67,4.03,3.07,5.81,4.59,14.1,8.37,.3,.22,6.38-.59,6.19-.31-3.95,5.59-11.54,26.36-13.73,34.32,.58,3.74,.76,14.88,22.19,42.1-3.3-10.09-5.02-18.17-6.03-28.41,1.23-.32,3.6,2.33,3.52,1.05-.45-7.84,2.98-14.19,4.4-18.28,.47-1.36,6.62-2.2,7.41-2.54-2.71-2.32-8.55-6.16-11.11-8.24,.17-.77,2.96-2.56,9.05-3.36,1.8-.13,7.23,6.72,10.41,5.72,1.49,1.33,4.45,10.68,1.93,12.16-1.69,2.08-8.19,.5-9.13,3.92-2.61,7.91-1.89,18.12,.73,21.6,.48,2.22,1.6,4.47,3.82,6.77-.28-3.84-.09-6.07,.58-6.56,2.28-1.08,4.74-1.85,7.96-2.42,.55-2.38-.99-4.18-3.72-5.83-2.42-2.56-2.26-7.56-2.27-9.35,.72-2.25,.79-4.04,10.74-4.34,9.95,.49,9.97,2.27,10.66,4.54-.05,1.79,.14,6.26-2.33,8.78-2.42,2.13-4.11,2.1-3.95,6.11,2.16,.54,6.42,1.09,9.49,2.28,.73,.39,.93,2.81,.64,6.78,2.24-2.33,3.36-4.6,3.84-6.85h-.07c.97-1.37,1.37-3.92,1.42-6.58,.07-4.11,.41-13.31-1.73-16.5-1.21-1.8-4.55,.24-6.98-2.63-1.84-2.33,2.06-11.82,2.34-11.84,3.55-.33,8.14-6.78,10.42-6.9,6.98-.34,11.29,.05,14.53-1.76,1.21-2.2,.37-5.67-.4-12.47-.04-.34,4.69,.71,4.99,.5l10.59-6.77c.83-1.58,1.57-3.33,2.18-5.19-.06-2.14-.24-4.27-.58-5.51-6.87,.79-12.36,2.83-19.52,4.74-.23-.07-20.18-6.28-25.43-5.87l-9.4,5.91-9.24-6.07c-5.7-.57-25.39,5.74-25.62,5.81-6.99-2.41-9.02-2.97-15.33-7.35,3.8,.28,8.17,.66,14.31,.6,7.64-2.68,16.35-4.84,23.99-5.8l11.48,2.25c3.47-1.1,6.62-1.61,9.74-2.42,10.5,1.81,22.52,3.46,26.06,5.66,7.56-1.41,8.07-2.29,12.64-2.95,1.98,.15,5.72,1.53,8.56,2.06,5,5.62,1.35,17.49-2.35,27.17,6.08,12.42,10.86,16.78,13.24,25.36,.35,13.16-3.91,30.2-16.39,44.82-1.67,1.95-1.87-3.59-3.43-1.77-12.96,15.04-28.24,22.1-46.69,29.77h0Zm-15.2-31.72c.63,2.16,.26,4.52,1.63,5.9,.26,.11,1.63,.61,2.13,.76,3.23,.95,6.49,1.79,9.64,2.07,3.15-.22,6.43-1.01,9.67-1.89,.52-.14,1.89-.62,2.14-.72,1.4-1.36,1.59-3.82,2.15-6.08,1.68,2.12,.96,7.7-.49,8.89-4.23,1.96-9.12,3.32-13.5,3.59-.99,2.59-.69,5.06,0,7.49-3.48,.31-4.87,.17-6.7-.94-2.43-2.81-4.9-9.73-6.76-10.39-1.43-1.23-1.51-6.57,.08-8.7h0Zm42.41-53.48c-1.31,5.28-7.96,7.11-12.4,6.37,3.67,5.18,16.42,1.53,12.4-6.37h0Z"/></svg>