<?xml version="1.0" encoding="UTF-8"?><svg id="Layer_1" xmlns="http://www.w3.org/2000/svg" viewBox="0 0 364.92 216.06"><defs><style>.cls-1,.cls-2{fill:#fff;}.cls-3{fill:#5894cf;}.cls-4{fill:#18477e;}.cls-4,.cls-2,.cls-5{fill-rule:evenodd;}.cls-5{fill:#ffd02a;}</style></defs><path class="cls-5" d="M364.92,0l-106.98,68.02-8.7-.08-12.98,11.01-19.61,7.1-39.33,20.74,7.66,1.43-21.28,11.37-38.22,12.54-8.03,5.88-35.94,13.33-7.26,5.64L0,186.25l75.56-48.63,16.63-1.88,24.91-17.39,22.76-8.2-19.87,4.04,20.83-12.86,14.91-4.4,17.73-6.8,31.15-15.9,20.84-6.73,32.04-18.21,13.3-3.72,5.74-4.64L364.92,0h0Zm-67.98,106.09l-69.94,44.47-5.69-.05-8.49,7.2-12.82,4.64-34.62,21.92-24.99,8.2-5.25,3.84-23.5,8.72-4.75,3.69-31.56,6.9,65.67-36.34,13.1-10.37,9.75-1.58,7.91-2.32,20.36-10.39,13.62-4.4,20.95-11.9,8.7-2.43,3.75-3.03,57.78-26.75h0ZM16.07,213.42l103.91-40.35,4.48-6.2,14.56-3.46,15.25-10.19,51.34-20.05,28.79-20.54,8.35-2.63,28.17-18.51,7.78-2.21,59.4-37.34-118.48,50.84-21.68,5.94-9.48,9.3-8.81,6.72-27.49,13.78-15.62,11.25-29.59,13.22-9.56,7.49-6.27,1.65L16.07,213.42h0ZM262.32,17.43l-55.91,22.93-22.59,5.67-3.33,4.61-10.83,2.57-11.34,7.58-38.17,14.9-21.41,15.27-6.21,1.95-20.94,13.77-5.78,1.64-44.28,33.91,88.21-43.95,16.12-4.41,7.05-6.92,6.51-5.08-4.1-.93,24.54-9.31,11.66-8.29,22-9.83,7.11-5.56,5.91,.17,55.78-30.7h0Z"/><path class="cls-5" d="M281.47,112.01l-.2,1.19c-.46,2.75-.95,5.51-1.44,8.26l-2.28,12.72-4.3,2.96-7.33,5.04-3.24,2.22-152.11,14.09,.2-1.14-1.92,1.3-89.44,8.29,3.94-22.37,1.61-9.2,2.94-.27,.53-3.01-2.95,.27,2.57-14.55,1.38-7.83,1.61-9.2,12.13-1.12,.95-2.96,.81-2.7,.5-1.64,1.42-4.75,143.89-13.33-2.14,6.62,3.83-.35-1.71,5.44c35.35-3.28,44.5-4.12,78.72-7.29l4.25,2.85,5.75,3.83,5.99,4.01-1.11,6.54c-.39,2.28-.81,4.55-1.19,6.83l-1.57,9.25h-.09Z"/><path class="cls-4" d="M243.84,84.92l2.73-.25c5.91-.55,11.82-1.09,17.73-1.64l3.68-.34,2.85,1.92c1.91,1.28,3.83,2.55,5.74,3.82l4.01,2.69-.74,4.38c-.39,2.27-.81,4.55-1.19,6.83l-1.05,6.19h-.1l-.71,4.27c-.46,2.74-.94,5.48-1.43,8.21-.49,2.71-.97,5.42-1.46,8.13l-.55,3.08-2.87,1.98c-2.44,1.68-4.88,3.36-7.33,5.04l-2.17,1.49-2.74,.25c-5.91,.55-11.82,1.1-17.72,1.64l-3.61,.34-2.1-1.37-.3,1.59-7.2,.67c-10.24,.95-20.48,1.9-30.72,2.85l-7.27,.68c-4.88,.45-9.75,.9-14.63,1.35l-7.27,.67c-5.39,.5-10.77,1-16.16,1.5l-7.72,.72c-5.39,.5-10.77,1-16.16,1.5l-11.5,1.07,1.02-5.81-.16,.11c-2.48,1.69-4.95,3.37-7.43,5.04l-2.16,1.46-2.71,.25c-17,1.58-27.16,2.52-43.27,4.01l-8.83,.82c-5.37,.5-10.75,1-16.12,1.5l-11.5,1.06,1.71-9.74c.46-2.61,.92-5.22,1.38-7.83l1.08-6.16,2.95-.27c.42-2.4,.85-4.8,1.26-7.21,.21-1.22,.42-2.43,.64-3.65l-2.94,.27,1.72-9.75c.46-2.61,.92-5.22,1.38-7.83l1.08-6.16,7.27-.67c37.03-3.43,60.38-5.6,100.99-9.36,5.26-.48,10.52-.97,15.78-1.46l10.08-.93,74.73-6.92h0Z"/><path class="cls-3" d="M71.52,150.43c-3.72,.34-7.37,.68-11.05,1.02-.92-2.74-1.89-5.49-2.83-8.23-.94-2.74-1.88-5.49-2.8-8.24-1.04,.1-2.05,.19-3.06,.28-.55,3.15-1.1,6.3-1.68,9.45,.97-.09,1.95-.18,2.92-.27-.46,2.61-.92,5.22-1.38,7.83-5.39,.5-10.77,1-16.12,1.5,.46-2.61,.92-5.22,1.38-7.83,.97-.09,1.95-.18,2.92-.27,.81-4.46,1.59-8.92,2.37-13.38,.78-4.46,1.56-8.91,2.34-13.38-.97,.09-1.95,.18-2.92,.27,.46-2.61,.92-5.22,1.38-7.83,9.17-.85,18.35-1.7,27.56-2.55,1.94,1.29,3.88,2.57,5.75,3.86-.46,2.6-.89,5.19-1.35,7.78-.46,2.6-.92,5.19-1.38,7.79-2.63,1.88-5.26,3.76-7.85,5.64,1.05,3.04,2.11,6.07,3.16,9.11,1.32-.12,2.68-.25,4.03-.38-.46,2.61-.92,5.22-1.38,7.83h0Zm-18.36-23.03c3.51-.33,7.09-.66,10.63-.98,.55-3.15,1.1-6.29,1.65-9.45-3.54,.33-7.12,.66-10.63,.99-.55,3.15-1.1,6.3-1.65,9.44h0Zm58,15.01c-2.47,1.68-4.95,3.36-7.42,5.03-6.36,.59-12.72,1.18-19.08,1.77-1.91-1.27-3.85-2.54-5.79-3.81,.99-5.59,1.98-11.18,2.97-16.76,.99-5.59,1.94-11.18,2.93-16.77,2.47-1.69,4.91-3.38,7.35-5.07,6.36-.59,12.72-1.18,19.11-1.77,1.91,1.29,3.88,2.57,5.82,3.85-.99,5.59-1.94,11.18-2.93,16.77-.99,5.59-1.98,11.18-2.97,16.76h0Zm-9.69-2.46c.81-4.46,1.59-8.92,2.37-13.38,.78-4.46,1.56-8.92,2.34-13.38-3.89,.36-7.82,.72-11.71,1.09-.78,4.46-1.56,8.92-2.34,13.38-.78,4.46-1.56,8.92-2.37,13.38,3.89-.36,7.82-.72,11.71-1.09h0Zm41.24-11.49c-.46,2.6-.92,5.2-1.38,7.8,.94-.09,1.91-.18,2.89-.27-.46,2.61-.92,5.22-1.38,7.83-5.39,.5-10.77,1-16.16,1.5,.46-2.61,.92-5.22,1.38-7.83,.94-.09,1.91-.18,2.88-.27,.49-2.62,.95-5.24,1.41-7.85-.94-3.01-1.8-6.03-2.69-9.04-.89-3.01-1.82-6.03-2.7-9.05-1.32,.12-2.61,.24-3.89,.36,.46-2.61,.92-5.22,1.41-7.84,5.39-.5,10.74-1,16.16-1.5-.46,2.61-.92,5.23-1.38,7.83-.66,.06-1.29,.12-1.88,.17,.69,2.55,1.42,5.09,2.11,7.64,1.64-2.76,3.24-5.52,4.88-8.28-.63,.06-1.22,.11-1.77,.16,.46-2.61,.92-5.22,1.38-7.83,5.25-.48,10.49-.97,15.78-1.46-.49,2.62-.95,5.23-1.41,7.84-1.11,.1-2.22,.21-3.3,.31-2.08,3.3-4.14,6.61-6.16,9.9-2.03,3.3-4.12,6.6-6.16,9.89h0Zm29.77,12.61c.46-2.61,.92-5.22,1.38-7.83,.94-.09,1.91-.18,2.88-.27-.1-1.11-.21-2.22-.27-3.35-3.27,.3-6.57,.61-9.84,.91-.52,1.17-1.04,2.35-1.5,3.51,.97-.09,1.95-.18,2.95-.27-.46,2.61-.92,5.22-1.38,7.83-5.39,.5-10.77,1-16.16,1.5,.46-2.61,.92-5.22,1.38-7.83,.9-.08,1.81-.17,2.71-.25,2.54-5.9,5.09-11.81,7.61-17.72,2.52-5.9,5.04-11.81,7.58-17.71,4.8-.44,9.63-.89,14.42-1.34,.45,5.63,1.01,11.25,1.46,16.88,.45,5.63,1.01,11.25,1.49,16.87,.9-.08,1.84-.17,2.78-.26-.46,2.61-.92,5.22-1.38,7.83-5.39,.5-10.77,1-16.13,1.49h0Zm-2.38-18.55c1.88-.17,3.79-.35,5.7-.53-.16-1.77-.38-3.53-.53-5.3-.15-1.77-.29-3.54-.42-5.31-.81,1.86-1.62,3.72-2.39,5.58-.77,1.85-1.58,3.71-2.36,5.57h0Zm25.15,16.44c.46-2.61,.92-5.22,1.38-7.83,.97-.09,1.95-.18,2.92-.27,.78-4.46,1.54-8.92,2.34-13.37,.8-4.46,1.59-8.92,2.37-13.38-.97,.09-1.95,.18-2.92,.27,.46-2.61,.92-5.22,1.38-7.83,5.39-.5,10.77-1,16.16-1.5-.46,2.61-.92,5.22-1.38,7.83-.97,.09-1.95,.18-2.92,.27-.78,4.46-1.57,8.92-2.37,13.38-.8,4.46-1.56,8.92-2.34,13.37,2.57-.24,5.18-.48,7.78-.72,.21-1.14,.42-2.28,.63-3.43,3.41-.32,6.85-.63,10.32-.96-.35,1.88-.65,3.76-.99,5.63-.34,1.88-.67,3.75-1.02,5.63-10.46,.97-20.92,1.94-31.35,2.9h0Zm69.59-10.79c-2.44,1.68-4.88,3.35-7.32,5.02-5.91,.55-11.82,1.09-17.72,1.64-1.94-1.27-3.91-2.53-5.86-3.81,.42-2.28,.81-4.56,1.22-6.84,3.41-.31,6.85-.63,10.25-.95-.21,1.15-.42,2.29-.59,3.43,3.47-.32,6.92-.64,10.39-.96,.55-3.15,1.1-6.29,1.65-9.44-4.66,.43-9.35,.87-14,1.3-1.94-1.28-3.92-2.56-5.86-3.83,.49-2.7,.97-5.41,1.46-8.11,.48-2.7,.94-5.41,1.42-8.12,2.47-1.69,4.94-3.38,7.42-5.08,5.87-.54,11.82-1.1,17.72-1.64,1.91,1.28,3.85,2.56,5.75,3.83-.38,2.27-.8,4.55-1.19,6.82-3.44,.32-6.85,.63-10.25,.95,.21-1.14,.38-2.28,.59-3.43-3.48,.32-6.92,.64-10.39,.96-.55,3.15-1.1,6.3-1.65,9.44,4.66-.43,9.38-.87,14.07-1.3,1.91,1.29,3.85,2.57,5.76,3.86-.45,2.71-.93,5.42-1.42,8.13-.48,2.71-.97,5.42-1.46,8.13h0Z"/><path class="cls-2" d="M70.37,128.86l1.79-1.28c.43-2.43,.86-4.86,1.29-7.3,.42-2.35,.81-4.71,1.22-7.07-1.53-1.04-3.07-2.07-4.62-3.09-8.59,.8-17.18,1.59-25.76,2.39-.31,1.74-.61,3.48-.92,5.22,.34-.03,.69-.06,1.03-.1l1.89-.18-.28,1.6-2.14,12.25,26.5-2.46h0Zm-18.71-1.6c.55-3.15,1.1-6.3,1.65-9.45l.18-1.01,1.2-.11c3.54-.33,7.09-.66,10.63-.98l1.89-.18-.28,1.6c-.55,3.15-1.1,6.3-1.65,9.45l-.18,1.01-1.2,.11c-3.54,.33-7.09,.66-10.63,.99l-1.89,.17,.28-1.6h0Zm41.03-19.23c-2.17,1.5-4.34,3.01-6.52,4.5-.89,5.04-1.75,10.07-2.64,15.11l7.19-.67,2.24-12.84,.18-1.01,1.2-.11c3.9-.36,7.81-.72,11.71-1.08l1.89-.18-.28,1.6-2.14,12.25,7.21-.67c.91-5.16,1.8-10.32,2.71-15.48-1.57-1.03-3.14-2.05-4.69-3.1-6.02,.56-12.03,1.11-18.05,1.67h0Zm52.4,13.91c.82-1.31,1.63-2.62,2.44-3.93,2.04-3.31,4.1-6.61,6.17-9.91l.39-.62,.82-.08c.7-.06,1.4-.13,2.11-.19,.31-1.74,.62-3.48,.94-5.22-4.22,.39-8.45,.78-12.67,1.17-.31,1.74-.61,3.48-.92,5.22l2.57-.24-1.23,2.08c-1.63,2.76-3.24,5.53-4.88,8.28l-1.89,3.18-.93-3.41c-.69-2.55-1.42-5.09-2.11-7.63l-.39-1.44,1.74-.16c.23-.02,.45-.04,.68-.06,.31-1.74,.61-3.48,.92-5.22-4.36,.4-8.72,.81-13.08,1.21-.32,1.74-.63,3.48-.94,5.22,.67-.06,1.33-.12,2-.19l1.28-.12,.3,1.05c.88,3.02,1.8,6.03,2.7,9.05,.31,1.06,.62,2.11,.93,3.17l13.05-1.21h0Zm39.36-3.65c-.09-1.01-.17-2.02-.25-3.03-.42-5.2-.92-10.39-1.35-15.59-3.98,.37-7.96,.74-11.94,1.11-2.42,5.64-4.83,11.29-7.24,16.93l-1.11,2.6,7.17-.66c.44-1.03,.88-2.06,1.31-3.09,.78-1.87,1.59-3.73,2.4-5.59l2.48-5.7,.44,6c.13,1.77,.28,3.53,.42,5.3,.07,.81,.15,1.61,.23,2.41l7.45-.69h0Zm31.72-16.57c.31-1.74,.61-3.48,.92-5.22-4.36,.4-8.72,.81-13.07,1.21-.31,1.74-.61,3.48-.92,5.22,.34-.03,.68-.06,1.03-.1l1.89-.17-.28,1.6c-.71,4.09-1.44,8.17-2.17,12.26l7.23-.67c.76-4.28,1.53-8.56,2.27-12.84l.18-1.01,1.2-.11c.57-.05,1.15-.11,1.72-.16h0Zm47.61,9.22c-.77-.52-1.54-1.03-2.31-1.55-4.49,.42-8.98,.83-13.47,1.25l-1.89,.17,.28-1.6c.55-3.15,1.1-6.3,1.65-9.44l.18-1.01,1.2-.11c3.46-.32,6.93-.64,10.39-.96l1.9-.18-.29,1.61c-.11,.6-.21,1.21-.31,1.82,2.39-.22,4.78-.44,7.16-.66,.29-1.69,.6-3.39,.89-5.08-1.54-1.03-3.09-2.05-4.62-3.08-5.56,.51-11.11,1.03-16.67,1.54-2.19,1.5-4.39,3.01-6.58,4.51-.45,2.54-.87,5.07-1.33,7.61-.44,2.46-.88,4.92-1.33,7.38l.16,.11,24.99-2.32h0Z"/><path class="cls-4" d="M173.22,79.76l2.43-.23c1.36-.13,2.71-.25,4.07-.38l4.94-.46-1.32,4.09c-.17,.53-.35,1.07-.51,1.61l-.27,.91,3.84-.36-1.28,4.07c-.13,.4-.25,.8-.38,1.2-.12,.37-.23,.74-.34,1.12l-.59,2.09-2.51,.23c-2.42,.23-4.85,.45-7.27,.67-42.22,3.91-83.32,7.72-123.36,11.43l-4.94,.46,1.32-4.09c.18-.55,.34-1.11,.52-1.66l.65-2.01h.02l1.08-3.61c.17-.55,.34-1.11,.51-1.66l.62-2.06c27.33-2.53,78.02-7.23,122.79-11.38h0Z"/><path class="cls-1" d="M50.39,102.84c.18-.55,.34-1.11,.52-1.66,.23-.02,.48-.05,.73-.07,.29-.95,.58-1.89,.87-2.84,.3-.95,.6-1.89,.89-2.84-.24,.02-.5,.05-.72,.07,.17-.55,.34-1.11,.51-1.66,2.71-.25,5.42-.5,8.16-.76-.11,.4-.24,.8-.36,1.2-.13,.4-.25,.8-.38,1.19-.87,.08-1.73,.16-2.59,.24,.09-.24,.16-.48,.23-.73-.75,.07-1.52,.14-2.26,.21-.21,.67-.42,1.34-.63,2,1.17-.11,2.35-.22,3.53-.33-.17,.56-.34,1.11-.51,1.67-1.18,.11-2.36,.22-3.53,.33-.21,.67-.42,1.34-.63,2,.74-.07,1.5-.14,2.26-.21,.07-.24,.14-.48,.23-.73,.86-.08,1.72-.16,2.59-.24-.13,.4-.25,.8-.38,1.2-.13,.4-.25,.8-.38,1.19-2.74,.25-5.45,.51-8.16,.76h0Zm10-.93c.18-.55,.34-1.11,.52-1.66,.24-.02,.5-.05,.74-.07,.29-.95,.58-1.89,.87-2.84,.3-.95,.6-1.89,.89-2.84-.24,.02-.5,.05-.74,.07,.17-.55,.34-1.11,.51-1.66,1.36-.13,2.71-.25,4.08-.38-.17,.55-.34,1.11-.51,1.66-.25,.02-.5,.05-.74,.07-.29,.95-.59,1.89-.89,2.84-.3,.94-.58,1.89-.88,2.84,.66-.06,1.3-.12,1.96-.18,.07-.24,.14-.48,.23-.73,.86-.08,1.72-.16,2.59-.24-.13,.4-.25,.8-.38,1.2-.13,.4-.25,.79-.36,1.19-2.64,.24-5.29,.49-7.91,.73h0Zm22.44-2.99c-.67,.37-1.33,.73-1.98,1.09-1.54,.14-3.09,.29-4.62,.43-.44-.26-.9-.52-1.35-.79,.36-1.18,.74-2.37,1.11-3.56,.37-1.18,.74-2.37,1.11-3.56,.66-.37,1.29-.73,1.93-1.1,1.53-.14,3.07-.29,4.62-.43,.47,.27,.93,.53,1.4,.8-.15,.48-.29,.96-.45,1.44-.86,.08-1.72,.16-2.58,.24,.07-.24,.16-.48,.23-.73-.93,.09-1.87,.17-2.79,.26-.29,.95-.59,1.89-.89,2.84-.3,.94-.58,1.89-.87,2.84,.93-.09,1.85-.17,2.78-.26,.07-.24,.16-.48,.23-.73,.87-.08,1.73-.16,2.59-.24-.16,.48-.3,.97-.46,1.45h0Zm7.06,.25c.18-.55,.34-1.11,.52-1.66,.23-.02,.48-.05,.73-.07,0-.24,0-.47,.02-.71-.83,.08-1.66,.15-2.48,.23-.17,.25-.32,.5-.46,.75,.25-.02,.5-.05,.75-.07-.18,.55-.34,1.11-.52,1.66-1.36,.13-2.71,.25-4.07,.38,.18-.55,.34-1.11,.52-1.66,.23-.02,.44-.04,.68-.06,.75-1.26,1.51-2.52,2.28-3.77,.76-1.26,1.51-2.52,2.29-3.78,1.19-.11,2.42-.22,3.62-.34,0,1.19,.01,2.38,0,3.56,0,1.19,0,2.38,0,3.56,.23-.02,.47-.04,.7-.06-.16,.55-.34,1.11-.51,1.66-1.36,.13-2.73,.25-4.08,.38h0Zm-.19-3.91c.47-.04,.95-.09,1.44-.13,0-.37,0-.75,0-1.12,0-.37,0-.75,.02-1.12-.26,.4-.51,.79-.74,1.19-.23,.39-.46,.79-.7,1.18h0Zm13.25,2.7c.18-.55,.34-1.11,.52-1.66,.23-.02,.47-.04,.71-.07,.18-.57,.36-1.14,.53-1.7,.18-.57,.36-1.14,.53-1.71-.53,.55-1.09,1.1-1.62,1.65-.53,.55-1.08,1.1-1.61,1.65-.21-.48-.44-.96-.65-1.44-.21-.48-.43-.96-.63-1.44-.16,.57-.34,1.14-.52,1.7-.18,.57-.35,1.14-.53,1.7,.23-.02,.47-.05,.71-.07-.17,.55-.34,1.11-.51,1.66-1.37,.13-2.72,.25-4.08,.38,.18-.55,.34-1.11,.52-1.66,.24-.02,.51-.05,.77-.07,.29-.95,.58-1.89,.87-2.84,.3-.95,.6-1.89,.89-2.84-.24,.02-.5,.05-.74,.07,.17-.55,.34-1.11,.51-1.66,1.11-.1,2.23-.21,3.33-.31,.21,.48,.43,.96,.63,1.44,.21,.48,.44,.96,.65,1.44,.53-.55,1.09-1.11,1.61-1.65,.53-.55,1.09-1.1,1.62-1.65,1.11-.1,2.23-.21,3.33-.31-.17,.55-.34,1.11-.51,1.66-.26,.02-.5,.05-.75,.07-.29,.95-.59,1.89-.89,2.84-.3,.94-.58,1.89-.87,2.84,.24-.02,.51-.05,.77-.07-.17,.55-.34,1.11-.51,1.66-1.36,.13-2.73,.25-4.08,.38h0Zm5.92-.55c.18-.55,.34-1.11,.52-1.66,.24-.02,.5-.05,.74-.07,.29-.94,.6-1.89,.89-2.84,.29-.94,.6-1.89,.89-2.84-.26,.02-.5,.05-.75,.07,.17-.55,.34-1.11,.51-1.66,1.37-.13,2.73-.25,4.08-.38-.17,.55-.34,1.11-.51,1.66-.25,.02-.5,.05-.75,.07-.29,.95-.59,1.89-.89,2.84-.3,.94-.58,1.89-.87,2.84,.24-.02,.5-.05,.74-.07-.16,.55-.34,1.11-.51,1.66-1.37,.13-2.73,.25-4.08,.38h0Zm12.07-1.12c-.22-.74-.44-1.49-.67-2.23-.22-.74-.46-1.48-.69-2.22-.16,.51-.31,1.02-.47,1.53-.16,.51-.33,1.02-.48,1.53,.25-.02,.5-.05,.75-.07-.18,.55-.34,1.11-.52,1.66-1.36,.13-2.71,.25-4.07,.38,.17-.55,.34-1.11,.51-1.66,.25-.02,.5-.05,.75-.07,.29-.95,.58-1.89,.87-2.84,.3-.95,.6-1.89,.89-2.84-.24,.02-.5,.05-.73,.07,.17-.55,.34-1.11,.51-1.66,1.17-.11,2.35-.22,3.52-.33,.23,.74,.46,1.49,.68,2.23,.22,.74,.45,1.49,.68,2.23,.17-.51,.33-1.02,.48-1.53,.16-.51,.33-1.02,.48-1.53-.27,.02-.51,.05-.76,.07,.17-.55,.34-1.11,.52-1.66,1.34-.12,2.7-.25,4.07-.38-.18,.56-.36,1.11-.52,1.66-.25,.02-.5,.05-.75,.07-.37,1.22-.76,2.45-1.14,3.67-.38,1.22-.76,2.45-1.15,3.67-.93,.09-1.85,.17-2.77,.26h0Zm13.78-2.19c-.66,.36-1.31,.73-1.96,1.09-1.61,.15-3.22,.3-4.81,.44-.47-.26-.93-.52-1.37-.78,.38-1.19,.74-2.37,1.11-3.56,.37-1.19,.74-2.37,1.11-3.56,.66-.37,1.3-.73,1.96-1.1,1.6-.15,3.21-.3,4.81-.44,.46,.26,.93,.53,1.37,.79-.36,1.19-.73,2.37-1.11,3.56-.37,1.18-.73,2.37-1.11,3.56h0Zm-2.37-.48c.29-.94,.6-1.89,.89-2.84,.29-.94,.6-1.89,.89-2.84-.99,.09-1.97,.18-2.95,.27-.29,.95-.6,1.89-.89,2.84-.29,.94-.6,1.89-.89,2.84,.98-.09,1.96-.18,2.95-.28h0Zm17.47,0c-.93,.09-1.85,.17-2.79,.26-.18-.58-.35-1.15-.53-1.73-.18-.58-.35-1.15-.53-1.73-.26,.02-.52,.05-.77,.07-.21,.67-.42,1.34-.63,2.01,.24-.02,.5-.05,.74-.07-.17,.55-.34,1.11-.51,1.66-1.36,.13-2.71,.25-4.08,.38,.18-.55,.34-1.11,.52-1.66,.24-.02,.5-.05,.74-.07,.29-.95,.6-1.89,.89-2.84,.29-.95,.6-1.89,.89-2.84-.26,.02-.5,.05-.75,.07,.17-.55,.34-1.11,.52-1.66,2.31-.21,4.63-.43,6.95-.64,.44,.27,.9,.53,1.35,.8-.17,.55-.34,1.1-.51,1.65-.17,.55-.35,1.1-.52,1.65-.69,.41-1.4,.82-2.09,1.22,.21,.64,.39,1.28,.6,1.92,.34-.03,.68-.06,1.02-.1-.16,.55-.34,1.11-.51,1.66h0Zm-4.09-4.8c.89-.08,1.79-.17,2.69-.25,.21-.67,.42-1.34,.63-2-.9,.08-1.8,.17-2.68,.25-.21,.67-.42,1.34-.63,2h0Zm5.93,4.63c.17-.55,.34-1.11,.51-1.66,.24-.02,.48-.05,.74-.07,.29-.94,.58-1.89,.87-2.84,.3-.95,.6-1.89,.89-2.84-.24,.02-.5,.05-.72,.07,.17-.55,.34-1.11,.52-1.66,2.71-.25,5.45-.5,8.18-.76-.13,.4-.25,.8-.38,1.2-.13,.4-.25,.8-.38,1.19-.86,.08-1.72,.16-2.59,.24,.09-.24,.16-.48,.23-.73-.75,.07-1.5,.14-2.27,.21-.21,.67-.42,1.34-.63,2,1.18-.11,2.35-.22,3.54-.33-.18,.56-.34,1.11-.52,1.67-1.19,.11-2.36,.22-3.54,.33-.21,.67-.42,1.34-.63,2,.77-.07,1.52-.14,2.28-.21,.07-.24,.15-.48,.23-.73,.86-.08,1.72-.16,2.58-.24-.13,.4-.25,.8-.38,1.2-.13,.4-.25,.8-.36,1.19-2.73,.25-5.46,.51-8.18,.76h0Zm15.53-1.44c.17-.55,.34-1.11,.51-1.66,.24-.02,.48-.05,.74-.07,0-.24,0-.47,0-.71-.83,.08-1.66,.15-2.48,.23-.15,.25-.32,.5-.45,.75,.24-.02,.5-.05,.74-.07-.17,.55-.34,1.11-.51,1.66-1.36,.13-2.71,.25-4.07,.38,.17-.55,.34-1.11,.51-1.66,.23-.02,.46-.04,.68-.06,.76-1.26,1.52-2.51,2.29-3.77,.76-1.25,1.51-2.52,2.29-3.78,1.21-.11,2.42-.22,3.64-.34-.01,1.19-.02,2.38-.02,3.57,0,1.19,0,2.37,0,3.56,.24-.02,.47-.04,.71-.06-.17,.55-.34,1.11-.51,1.66-1.37,.13-2.72,.25-4.08,.38h0Zm-.19-3.91c.47-.04,.95-.09,1.44-.13-.02-.37,0-.75,0-1.12,0-.37,0-.75,0-1.12-.25,.4-.49,.8-.73,1.19-.23,.39-.47,.79-.7,1.18h0Zm6.11,3.37c.17-.55,.34-1.11,.51-1.66,.24-.02,.5-.05,.74-.07,.29-.95,.6-1.89,.89-2.84,.29-.95,.6-1.89,.89-2.84-.24,.02-.5,.05-.74,.07,.17-.55,.34-1.11,.52-1.66,1.36-.13,2.71-.25,4.07-.38-.18,.55-.36,1.11-.52,1.66-.24,.02-.5,.05-.74,.07-.29,.95-.6,1.89-.89,2.84-.29,.95-.6,1.89-.89,2.84,.66-.06,1.3-.12,1.97-.18,.07-.24,.16-.48,.23-.73,.86-.08,1.72-.16,2.6-.24-.13,.4-.25,.8-.38,1.2-.13,.4-.25,.79-.36,1.19-2.64,.24-5.29,.49-7.91,.73h0Z"/></svg>