<?xml version="1.0" encoding="UTF-8"?><svg id="Layer_1" xmlns="http://www.w3.org/2000/svg" viewBox="0 0 239.27 110.2"><defs><style>.cls-1,.cls-2{fill:#fff;}.cls-3{fill:#18477e;}.cls-3,.cls-2{fill-rule:evenodd;}</style></defs><path class="cls-3" d="M239.27,14.1l-55.62,29.73-4.31-.36-6.85,4.98-10,2.79-20.29,8.81,3.75,.99-10.98,4.84-19.43,4.79-4.2,2.61-18.33,5.27-3.81,2.52-37.92,11.74,39.3-21.29,8.32-.31,13.01-7.7,11.6-3.22-10.01,1.26,10.82-5.6,7.56-1.62,9.05-2.71,16.05-6.72,10.59-2.56,16.58-7.83,6.74-1.35,3.02-2.09,45.38-16.99h0Zm-37.7,50.08l-36.36,19.44-2.82-.24-4.48,3.25-6.53,1.82-17.99,9.58-12.7,3.13-2.75,1.71-11.98,3.44-2.49,1.65-15.91,2.24,33.94-15.57,6.89-4.65,4.89-.42,4.01-.85,10.49-4.39,6.92-1.67,10.84-5.12,4.4-.88,1.97-1.36,29.66-11.11h0ZM58.22,106.9l53.06-16.13,2.45-2.91,7.35-1.17,7.94-4.49,26.22-8.02,15.05-9.11,4.24-.99,14.67-8.13,3.94-.8,30.86-16.3-60.68,20.78-10.98,2.13-5.05,4.26-4.62,3.01-14.15,5.81-8.17,5-15.17,5.45-5.02,3.36-3.17,.58-38.77,17.67h0ZM187.72,18.9l-28.59,9.28-11.42,1.97-1.82,2.16-5.47,.87-5.91,3.33-19.49,5.96-11.19,6.77-3.15,.73-10.9,6.04-2.93,.6-23.24,15.16,45.4-18.5,8.16-1.59,3.75-3.17,3.42-2.28-2-.62,12.52-3.7,6.09-3.67,11.28-4.05,3.73-2.49,2.93,.31,28.82-13.14h0Z"/><path class="cls-3" d="M112.48,88.21l-5.07,.02c-4.32,.02-8.63,.07-12.95,.15-11.9,.22-4.51-.07-16.97,.43-5.13,.21-10.25,.42-15.37,.67l-2.19,.1v5.17l-6.88,.51c-2.96,.22-5.92,.44-8.87,.66l-3.62,.28-3.4,.3c-4.32,.38-8.64,.77-12.95,1.21l-8.43,.87v-21.11l2.36-.2v-16.56l-.63-.65c-2.6-2.68-5.17-5.38-7.71-8.1L0,41.51H48.64l2.19,1.81c.69,.57,1.38,1.14,2.08,1.71v-13.98h118.88v10.47h52.9l-9.89,10.49c-1.98,2.1-3.98,4.2-5.99,6.28v31.4l-2.52,1.92c-1.77,1.35-3.55,2.69-5.33,4.02l-2.47,1.85-3.27-.29c-4.74-.43-9.48-.85-14.23-1.23l-2.75-.22-1.93-1.69c-1.56-1.36-3.11-2.73-4.66-4.09-8.04-.43-16.08-.81-24.12-1.13l-4.8-.15c-4.3-.14-8.61-.24-12.92-.31l-5.06-.09c-4.09-.03-8.17-.06-12.26-.07h0Z"/><path class="cls-1" d="M82.47,78.65c-1.78,1.25-3.56,2.49-5.33,3.74-5.16,.21-10.3,.42-15.44,.67-1.78-1.12-3.54-2.27-5.3-3.4v-27.97c1.76-1.25,3.52-2.49,5.3-3.72h15.44c1.78,1.21,3.56,2.41,5.33,3.6v27.09h0Zm118.82-22.68c2.55-2.63,5.1-5.3,7.65-8.01h-27.25c-1.8,1.46-3.57,2.9-5.35,4.34v15.75c1.78,1.51,3.56,3.03,5.35,4.56,3.77,.17,7.54,.37,11.3,.58v9.47c-2.8-.2-5.58-.41-8.37-.61v-3.38c-2.76-.15-5.53-.31-8.29-.47v6.64c1.78,1.56,3.56,3.13,5.35,4.7,4.77,.38,9.55,.81,14.32,1.24,1.76-1.32,3.52-2.64,5.27-3.98v-16.62c-1.76-1.6-3.52-3.19-5.27-4.77-3.81-.14-7.6-.28-11.38-.41v-9.31c2.78,.05,5.56,.09,8.37,.14v3.44c2.76,.06,5.53,.14,8.29,.22v-3.51h0Zm-177.97,0c-2.55-2.64-5.1-5.31-7.63-8.02h29.92c1.76,1.45,3.52,2.89,5.3,4.31v15.06c-1.89,1.69-3.79,3.37-5.66,5.07,1.31,3.04,2.63,6.08,3.94,9.09,1.06-.07,2.15-.13,3.23-.19v7.55c-2.98,.22-5.93,.44-8.89,.67-1.18-2.73-2.38-5.49-3.54-8.25-1.16-2.76-2.36-5.54-3.52-8.34-.83,.05-1.64,.09-2.45,.13v9.43c.79-.06,1.58-.11,2.38-.17v7.78c-4.37,.39-8.72,.77-13.06,1.22v-8.01c.77-.07,1.57-.13,2.36-.19v-27.2c-.79,.01-1.58,.03-2.36,.05h0Zm10.69,9.24c2.86-.1,5.72-.21,8.6-.3v-9.27c-2.88,.04-5.74,.09-8.6,.14v9.43h0Zm113.02,17.14v-6.36c.77,.02,1.56,.04,2.36,.06v-21.74c-.79,0-1.59,0-2.36-.01v-6.35h13.06v6.45c-.79,0-1.59-.01-2.38-.02v21.97c2.11,.07,4.21,.15,6.32,.25v-2.84c2.76,.11,5.53,.22,8.31,.33v9.45c-8.45-.45-16.89-.85-25.32-1.18h0Zm-17.06-.43v-6.27c.77,0,1.54,.02,2.34,.03-.25-.92-.48-1.84-.71-2.76-2.65-.04-5.3-.07-7.94-.09-.25,.91-.48,1.82-.72,2.73,.79,0,1.59,0,2.4,.02v6.26c-4.37-.04-8.72-.06-13.06-.07v-6.24c.73,0,1.47,0,2.2,0,1.22-4.59,2.43-9.18,3.65-13.77,1.22-4.59,2.43-9.2,3.67-13.8h11.65c1.22,4.63,2.44,9.27,3.65,13.91,1.22,4.65,2.43,9.31,3.67,13.98,.73,.02,1.49,.04,2.24,.06v6.33c-4.35-.14-8.7-.24-13.04-.31h0Zm-4.64-15.33c1.53,.02,3.05,.03,4.6,.04-.77-2.91-1.54-5.81-2.32-8.72-.77,2.9-1.53,5.78-2.28,8.68h0Zm-20.27,2.74v6.22c.77,0,1.55,0,2.32,0v6.25c-4.37,.02-8.72,.07-13.06,.15v-6.28c.77,0,1.56-.02,2.36-.03v-6.28c-1.18-2.51-2.38-5.02-3.54-7.53-1.16-2.52-2.34-5.04-3.5-7.57-1.06,0-2.11,0-3.15,.01v-6.31h13.06v6.26c-.5,0-1.01,0-1.51,0,.95,2.12,1.89,4.23,2.86,6.35,.93-2.12,1.86-4.24,2.8-6.36h-1.45v-6.25h12.74v6.24h-2.69c-1.22,2.52-2.43,5.04-3.63,7.56-1.2,2.52-2.42,5.05-3.62,7.57h0Zm-30.88,6.79v-21.79c-3.17,.02-6.32,.05-9.47,.07v22.03c3.15-.1,6.3-.21,9.47-.32h0Z"/><path class="cls-2" d="M81.29,65.92v-13.87c-1.52-1.02-3.05-2.05-4.57-3.09h-14.61c-1.52,1.06-3.03,2.12-4.54,3.19v15.25c1.96-.16,3.94-.31,5.94-.45v-13.54h1.17c3.16-.03,6.31-.06,9.47-.08h1.19v12.88c1.97-.1,3.96-.2,5.96-.29h0Zm125.18-16.96h-24.32c-1.55,1.26-3.09,2.51-4.65,3.77v14.9l.95,.81c7.51,.76,14.74,1.64,21.65,2.64v-.5c-1.54-1.4-3.08-2.79-4.62-4.18-3.64-.13-7.27-.27-10.91-.4l-1.13-.04v-11.3l1.2,.02c2.79,.05,5.58,.09,8.37,.14l1.15,.02v3.44c1.98,.05,3.96,.1,5.94,.15v-2.83l.27-.28c2.05-2.11,4.08-4.23,6.09-6.36h0ZM23.85,54.95c.6-.01,1.2-.02,1.79-.03l1.2-.02v15.84c6.84-.95,14-1.79,21.4-2.51,.49-.43,.98-.87,1.46-1.31v-14.22c-1.54-1.24-3.07-2.49-4.59-3.75H18.13c1.89,2.01,3.8,4,5.72,5.99h0Zm8.97,10.26v-10.42l1.15-.02c2.87-.05,5.74-.1,8.6-.14l1.2-.02v11.26l-1.13,.04c-2.87,.09-5.73,.2-8.6,.3l-1.22,.05v-1.05h0Zm123.7,1.42v-13.26h1.18c.4,0,.8,.01,1.19,.02v-4.43h-10.71v4.35c.39,0,.79,0,1.19,0h1.17v12.96c2.01,.11,4,.23,5.98,.36h0Zm-19.65-.97l-.94-3.58c-1.15-4.37-2.3-8.75-3.45-13.12h-9.78c-1.16,4.34-2.31,8.68-3.46,13.02l-.87,3.3c2.03,.02,4.05,.04,6.06,.08,.67-2.55,1.33-5.11,2.01-7.66l1.15-4.3,1.15,4.3c.69,2.6,1.38,5.19,2.07,7.79,2.03,.05,4.05,.11,6.06,.18h0Zm-23.08-12.48v-4.23h-10.38v4.24h1.98l-.61,1.36c-.94,2.12-1.87,4.24-2.8,6.36l-1.08,2.46-1.12-2.45c-.96-2.11-1.91-4.24-2.86-6.36l-.61-1.36h1.71c.11,0,.22,0,.33,0v-4.25h-10.71v4.29c.66,0,1.31,0,1.97,0h.81l.29,.64c1.16,2.52,2.33,5.04,3.5,7.57,.61,1.33,1.24,2.66,1.86,3.98,3.19-.07,6.4-.12,9.63-.15,.62-1.3,1.24-2.6,1.86-3.9,1.2-2.53,2.42-5.05,3.64-7.57l.3-.62h2.3Z"/><path class="cls-1" d="M58.76,42.86v-1.51h.55v-5.15h-.55v-1.51h6.09v2.17h-1.93v-.66h-1.69v1.82h2.64v1.51h-2.64v1.82h1.69v-.66h1.93v2.17h-6.09Zm7.75,0v-1.51h.55v-5.15h-.55v-1.51h3.04v1.51h-.55v5.15h1.47v-.66h1.93v2.17h-5.88Zm20.11-.85l-1.26,.85h-3.43l-1.23-.85v-6.46l1.23-.86h3.43l1.26,.86v1.3h-1.93v-.66h-2.07v5.15h2.07v-.66h1.93v1.32h0Zm5.77,.85v-1.51h.54l-.16-.66h-1.85l-.16,.66h.56v1.51h-3.03v-1.51h.51l1.7-6.66h2.71l1.7,6.66h.52v1.51h-3.03Zm-1.08-3.68h1.07l-.54-2.1-.53,2.1h0Zm11.1,3.68v-1.51h.53v-3.09l-1.68,2.81-1.67-2.81v3.09h.53v1.51h-3.04v-1.51h.58v-5.15h-.56v-1.51h2.48l1.67,2.81,1.68-2.81h2.48v1.51h-.55v5.15h.57v1.51h-3.04Zm4.7,0v-1.51h.55v-5.15h-.55v-1.51h3.04v1.51h-.55v5.15h.55v1.51h-3.04Zm9.28,0l-2.11-4.28v2.77h.56v1.51h-3.04v-1.51h.56v-5.15h-.55v-1.51h2.61l2.11,4.28v-2.78h-.56v-1.51h3.03v1.51h-.56v6.66h-2.07Zm10.34-.85l-1.24,.85h-3.59l-1.23-.85v-6.46l1.23-.86h3.59l1.24,.86v6.46h0Zm-1.93-.66v-5.15h-2.2v5.15h2.2Zm17,1.51h-2.07l-1.64-3.33h-.57v1.82h.55v1.51h-3.04v-1.51h.55v-5.15h-.55v-1.51h5.18l1.23,.86v3l-1.31,.96,.92,1.84h.75v1.51h0Zm-4.28-4.84h2v-1.82h-2v1.82h0Zm5.94,4.84v-1.51h.55v-5.15h-.55v-1.51h6.09v2.17h-1.93v-.66h-1.69v1.82h2.64v1.51h-2.64v1.82h1.69v-.66h1.93v2.17h-6.09Zm11.86,0v-1.51h.54l-.16-.66h-1.85l-.17,.66h.56v1.51h-3.04v-1.51h.51l1.7-6.66h2.71l1.7,6.66h.53v1.51h-3.04Zm-1.07-3.68h1.07l-.54-2.1-.53,2.1h0Zm5.77,3.68v-1.51h.55v-5.15h-.55v-1.51h3.04v1.51h-.55v5.15h1.47v-.66h1.93v2.17h-5.89Z"/><path class="cls-3" d="M92.74,30.25c-.45-.28-.49-.62-.68-1.46-1.16-8.49-3.75-13.22-6.39-20.67,.56,.03,8.75,3.87,10.02,4.67l2.35-2.11,3.21,1.58c4.13-3.1,8.01-8.37,11.11-12.27,3.1,3.9,6.98,9.17,11.11,12.27l3.21-1.58,2.35,2.11c1.27-.79,9.47-4.63,10.02-4.67-2.64,7.45-5.22,12.18-6.39,20.67-.19,.84-.24,1.17-.68,1.46-.34,.2-.55,.34-.68,.49-1.59,2.22-31.21,3.92-38.56-.49h0ZM112.37,5.61l-7.62,8.87,1.46,7.93c-1.37,.15-4.92,.99-6.38,1.52-.14-.89-.39-2.5-.57-3.94-.74-.9-8.01-7.16-8.21-7.06,.43,.97,1.55,3.8,1.77,4.22,.68,1.17,3.5,4.21,4.05,5.36,.12,.47-.05,.93-.39,1.85-.43,1.17-.62,2.31-.87,3.49-.06,.29,.35,.26,.55,.14,.58-.33,2.71-1.22,3.43-1.44,3.99-1.21,8.53-1.83,12.78-1.89,4.25,.06,8.79,.68,12.78,1.89,.72,.22,2.86,1.12,3.43,1.44,.2,.12,.62,.15,.55-.14-.25-1.19-.44-2.32-.87-3.49-.34-.93-.51-1.38-.39-1.85,.55-1.15,3.37-4.19,4.05-5.36,.22-.42,1.34-3.26,1.77-4.22-.21-.09-7.47,6.17-8.21,7.06-.19,1.44-.43,3.06-.57,3.94-1.46-.54-5.01-1.37-6.38-1.52l1.46-7.93-7.62-8.87h0Z"/><path class="cls-3" d="M112.36,22.43l.37-.49,2.66-3.55c.72-.99,.7-1.09,.08-2.16l-2.74-4.38-.37-.59-.37,.59-2.74,4.38c-.62,1.07-.64,1.17,.08,2.16l2.66,3.55,.37,.49h0Z"/><path class="cls-2" d="M130.18,25.22c-.14-.46-.97-2.47-.87-2.79,.13-.38,1.3-1.76,1.78-1.96-.13,.72-.37,1.45-.51,2.22-.1,.56-.29,1.88-.4,2.53h0Zm-35.62,0c.14-.46,.97-2.47,.87-2.79-.13-.38-1.3-1.76-1.78-1.96,.13,.72,.37,1.45,.51,2.22,.1,.56,.29,1.88,.4,2.53h0Z"/><path class="cls-2" d="M112.36,14.12l-.18,.29-1.33,2.13c-.14,.24-.22,.38-.22,.51l1.74,.67v-3.6h0Z"/></svg>